<svg width="59" height="81" viewBox="0 0 59 81" fill="none" xmlns="http://www.w3.org/2000/svg">
<path d="M29.3352 0C13.1597 0 0 13.1597 0 29.335C0 49.4091 26.2521 78.8791 27.3698 80.1238C28.4196 81.2931 30.2526 81.291 31.3005 80.1238C32.4182 78.8791 58.6703 49.4091 58.6703 29.335C58.67 13.1597 45.5105 0 29.3352 0ZM29.3352 44.0943C21.1969 44.0943 14.5761 37.4733 14.5761 29.335C14.5761 21.1967 21.197 14.5759 29.3352 14.5759C37.4733 14.5759 44.0941 21.1969 44.0941 29.3352C44.0941 37.4735 37.4733 44.0943 29.3352 44.0943Z" fill="#737373"/>
</svg>
