<svg width="422" height="398" viewBox="0 0 422 398" fill="none" xmlns="http://www.w3.org/2000/svg">
<path d="M413.102 303.981L264.028 30.1518C252.659 11.3684 232.888 0 210.892 0C188.897 0 169.126 11.3684 157.756 30.1518L8.68192 303.981C-2.68484 323.506 -2.9328 346.737 8.18929 366.26C19.3097 385.784 39.3272 397.4 61.8177 397.4H359.967C382.457 397.4 402.475 385.784 413.595 366.26C424.717 346.737 424.469 323.506 413.102 303.981Z" fill="#636363"/>
<path d="M413.595 366.26C402.475 385.784 382.458 397.4 359.967 397.4H210.893V0C232.888 0 252.659 11.3692 264.028 30.1518L413.103 303.981C424.47 323.506 424.717 346.737 413.595 366.26Z" fill="#393838"/>
<path d="M391.849 316.585L242.773 42.7542C236.102 31.3866 223.992 24.7139 210.892 24.7139C197.793 24.7139 185.683 31.3875 179.012 42.7542L29.9362 316.585C23.0172 328.202 23.0172 342.287 29.6907 353.903C36.3627 365.765 48.4717 372.686 61.8188 372.686H359.968C373.314 372.686 385.424 365.765 392.096 353.903C398.768 342.287 398.768 328.202 391.849 316.585Z" fill="#A8A8A8"/>
<path d="M392.095 353.903C385.423 365.765 373.314 372.686 359.967 372.686H210.893V24.7139C223.992 24.7139 236.102 31.3875 242.773 42.7542L391.849 316.585C398.768 328.202 398.768 342.287 392.095 353.903Z" fill="#777575"/>
<path d="M210.892 347.972C197.268 347.972 186.178 336.882 186.178 323.258C186.178 309.634 197.268 298.544 210.892 298.544C224.516 298.544 235.606 309.634 235.606 323.258C235.606 336.882 224.516 347.972 210.892 347.972Z" fill="#777575"/>
<path d="M235.607 249.116C235.607 262.74 224.517 273.83 210.893 273.83C197.269 273.83 186.179 262.74 186.179 249.116V125.547C186.179 111.923 197.269 100.833 210.893 100.833C224.517 100.833 235.607 111.923 235.607 125.547V249.116Z" fill="#777575"/>
<path d="M235.606 323.258C235.606 309.634 224.516 298.544 210.892 298.544V347.972C224.516 347.972 235.606 336.882 235.606 323.258Z" fill="#393838"/>
<path d="M235.606 249.116V125.547C235.606 111.923 224.516 100.833 210.892 100.833V273.83C224.516 273.83 235.606 262.74 235.606 249.116Z" fill="#393838"/>
</svg>
