<svg width="150" height="150" viewBox="0 0 150 150" fill="none" xmlns="http://www.w3.org/2000/svg">
<rect width="150" height="150" rx="40" fill="#D21212"/>
<path d="M61.488 26.2H88.272L83.808 92.008H65.952L61.488 26.2ZM74.88 128.152C70.944 128.152 67.632 126.904 64.944 124.408C62.352 121.816 61.056 118.696 61.056 115.048C61.056 111.4 62.352 108.376 64.944 105.976C67.536 103.48 70.848 102.232 74.88 102.232C78.912 102.232 82.224 103.48 84.816 105.976C87.408 108.376 88.704 111.4 88.704 115.048C88.704 118.696 87.36 121.816 84.672 124.408C82.08 126.904 78.816 128.152 74.88 128.152Z" fill="white"/>
</svg>
