<svg width="87" height="65" viewBox="0 0 87 65" fill="none" xmlns="http://www.w3.org/2000/svg">
<rect y="6" width="87" height="59" rx="6" fill="#737373"/>
<path d="M11 2C11 0.89543 11.8954 0 13 0H25C26.1046 0 27 0.895431 27 2V6H11V2Z" fill="#737373"/>
<path d="M60 2C60 0.89543 60.8954 0 62 0H74C75.1046 0 76 0.895431 76 2V6H60V2Z" fill="#737373"/>
<path d="M41 7C41 6.44772 41.4477 6 42 6H81C84.3137 6 87 8.68629 87 12V64C87 64.5523 86.5523 65 86 65H42C41.4477 65 41 64.5523 41 64V7Z" fill="#737373"/>
<path d="M21.1992 23.6738H27.5449V28.2617H21.1992V35.4336H16.3652V28.2617H10.002V23.6738H16.3652V16.8008H21.1992V23.6738Z" fill="white"/>
<path d="M60 28V23H76.5V28H60Z" fill="white"/>
</svg>
