<svg width="154" height="209" viewBox="0 0 154 209" fill="none" xmlns="http://www.w3.org/2000/svg">
<path d="M124.666 113.667H25.666V46.2037C25.666 20.724 47.8714 0 75.166 0C102.461 0 124.666 20.724 124.666 46.2037V113.667ZM40.3327 99H109.999V46.2037C109.999 28.8127 94.372 14.6667 75.166 14.6667C55.96 14.6667 40.3327 28.8127 40.3327 46.2037V99Z" fill="#393838"/>
<path d="M154 91.666H0V208.999H154V91.666Z" fill="#A8A8A8"/>
<path d="M154 91.666H77V208.999H154V91.666Z" fill="#777575"/>
<path d="M126.816 205.333L150.334 181.815V168.666H129.852L93.1855 205.333H126.816Z" fill="#9E9494"/>
<path d="M3.66602 168.666V196.481L31.4814 168.666H3.66602Z" fill="#636363"/>
<path d="M82.8143 205.333L119.481 168.666H85.8503L49.1836 205.333H82.8143Z" fill="#393838"/>
<path d="M75.4814 168.666H41.8507L6.25835 204.258C5.54335 204.973 4.60468 205.333 3.66602 205.333H38.8147L75.4814 168.666Z" fill="#DCD7D7"/>
<path d="M150.332 205.334V192.186L137.184 205.334H150.332Z" fill="#393838"/>
<path d="M76.9989 177.519L49.1836 205.334H76.9989V177.519Z" fill="#636363"/>
</svg>
