<svg width="474" height="387" viewBox="0 0 474 387" fill="none" xmlns="http://www.w3.org/2000/svg">
<path d="M440.725 155.337L418.408 138.35L397.945 40.2323C393.035 16.6892 373.988 0 352.026 0H121.989C100.028 0 80.9803 16.6892 76.0695 40.2323L55.6074 138.351L33.2908 155.339C18.5262 166.577 9.71582 185.07 9.71582 204.818V293.121C9.71582 309.522 21.8043 322.818 36.7156 322.818H437.3C452.211 322.818 464.3 309.522 464.3 293.121V204.818C464.3 185.068 455.489 166.576 440.725 155.337Z" fill="#636363"/>
<path d="M392.061 138.312H81.4258L100.583 46.4528C102.86 35.5486 111.549 27.9233 121.728 27.9233H351.758C361.938 27.9233 370.627 35.5486 372.903 46.4528L392.061 138.312Z" fill="#A8A8A8"/>
<path d="M45.8018 211.939C45.8018 233.571 61.7425 251.108 81.4062 251.108C101.07 251.108 117.011 233.571 117.011 211.939H45.8018Z" fill="white"/>
<path d="M356.698 211.939C356.698 233.571 372.639 251.108 392.303 251.108C411.966 251.108 427.907 233.571 427.907 211.939H356.698Z" fill="white"/>
<path d="M454.474 280.444H19.2731C8.62901 280.444 0 289.935 0 301.642C0 313.35 8.62901 322.84 19.2731 322.84H454.474C465.118 322.84 473.747 313.35 473.747 301.642C473.747 289.935 465.118 280.444 454.474 280.444Z" fill="#CCCCCC"/>
<path d="M34.6982 322.806V374.551C34.6982 381.356 39.713 386.871 45.8993 386.871H88.8214C95.0077 386.871 100.022 381.356 100.022 374.551V322.806" fill="#605E5E"/>
<path d="M373.354 322.806V374.551C373.354 381.356 378.368 386.871 384.555 386.871H427.477C433.663 386.871 438.678 381.356 438.678 374.551V322.806" fill="#605E5E"/>
<path d="M311.677 322.806V329.078C311.677 344.311 300.451 356.659 286.602 356.659H205.042C191.194 356.659 179.968 344.311 179.968 329.078V322.806" fill="#504F4F"/>
<path d="M392.364 138.312H285.418L185.058 27.9233H352.063C362.242 27.9233 370.931 35.5486 373.207 46.4528L392.364 138.312Z" fill="#BFBFBF"/>
<path d="M328.991 211.939H154.523V227.19H328.991V211.939Z" fill="#A8A8A8"/>
<path d="M328.991 237.636H154.523V252.895H328.991V237.636Z" fill="#A8A8A8"/>
</svg>
