<svg width="243" height="418" viewBox="0 0 243 418" fill="none" xmlns="http://www.w3.org/2000/svg">
<rect x="12" y="34" width="218" height="333" fill="#CCCCCC"/>
<rect x="68" y="14" width="100" height="20" fill="#777575"/>
<rect x="96" y="371" width="58" height="39" fill="#F0F0F0"/>
<path d="M214.571 0.0356445H28.2305C12.7061 0.0356445 0 12.7298 0 28.2662V389.758C0 405.294 12.7061 418 28.2305 418H214.571C230.095 418 242.801 405.318 242.801 389.769V28.2662C242.801 12.7298 230.095 0.0356445 214.571 0.0356445ZM91.5939 20.3845H151.208C153.094 20.3845 154.623 21.9131 154.623 23.8118C154.623 25.6987 153.094 27.2272 151.208 27.2272H91.5939C89.7071 27.2272 88.1785 25.6987 88.1785 23.8118C88.1785 21.9131 89.7071 20.3845 91.5939 20.3845ZM121.401 403.885C113.603 403.885 107.285 397.567 107.285 389.758C107.285 381.948 113.603 375.642 121.401 375.642C129.199 375.642 135.516 381.948 135.516 389.758C135.516 397.567 129.199 403.885 121.401 403.885ZM223.157 365.754H19.6443V44.8056H223.157V365.754Z" fill="#5A5A5A"/>
</svg>
