<svg width="592" height="396" viewBox="0 0 592 396" fill="none" xmlns="http://www.w3.org/2000/svg">
<path d="M591.859 384.037L545.35 84.4487C544.886 81.4583 543.299 78.8681 541.026 77.3905L423.965 1.26687C422.446 0.277308 420.742 -0.11608 419.069 0.0353293L440.366 321.25L439.653 321.623L579.749 395.106C580.889 395.703 582.101 395.997 583.307 395.997C585.216 395.997 587.108 395.263 588.663 393.84C591.204 391.52 592.433 387.746 591.859 384.037Z" fill="#9C9C9C"/>
<path d="M295.999 74.0397L176.275 1.13211C174.84 0.257454 173.249 -0.0994485 171.682 0.0235715C172.098 -0.00616961 172.515 -0.00345119 172.929 0.0344011L151.632 321.249L292.442 395.107C293.578 395.702 294.791 395.998 295.999 395.998V74.0397V74.0397Z" fill="#9C9C9C"/>
<path d="M172.929 0.0353323C171.256 -0.116077 169.553 0.277322 168.034 1.26554L50.971 77.3892C48.6978 78.8668 47.1114 81.4556 46.6478 84.4473L0.139765 384.036C-0.436049 387.743 0.794204 391.517 3.33449 393.84C4.89197 395.263 6.78244 395.997 8.69026 395.997C9.89623 395.997 11.1091 395.704 12.2481 395.107L151.581 322.023L172.929 0.0353323Z" fill="#CCCCCC"/>
<path d="M419.071 0.0297852C417.92 0.133879 416.781 0.492115 415.725 1.1356L296.001 74.0418V396C296.001 396 296.001 396 296.002 396C297.21 396 298.424 395.705 299.56 395.109L440.37 321.251L419.071 0.0297852Z" fill="#CCCCCC"/>
<path d="M32.5542 175.238L23.1064 236.098L163.006 149.705L166.254 100.715L166.793 92.5903L32.5542 175.238Z" fill="#777575"/>
<path d="M164.264 130.708L163.005 149.705L23.1053 236.097L0.139765 384.036C-0.436049 387.743 0.794204 391.517 3.33449 393.84C4.89197 395.263 6.78244 395.997 8.69026 395.997C9.89623 395.997 11.1091 395.704 12.2481 395.106L151.581 322.023L164.264 130.708Z" fill="#CCCCCC"/>
<path d="M296.035 114.196L166.792 92.5886L163.005 149.704L296.001 385.847V299.979L216.639 153.871L296.035 164.974V114.196Z" fill="#444444"/>
<path d="M531.812 71.3963L475.578 34.8269L422.342 49.3703L423.008 59.4228L425.637 99.0785L531.812 71.3963Z" fill="#444444"/>
<path d="M430.361 170.293L425.32 94.252L422.345 49.3713L296.037 114.196V164.975L378.543 123.026L430.361 170.293Z" fill="#777575"/>
<path d="M591.862 384.036L580.18 308.783L425.639 99.0798L430.361 170.293L588.848 393.65C591.258 391.316 592.422 387.649 591.862 384.036Z" fill="#444444"/>
<path d="M299.56 395.106L351.921 367.642L296.001 299.979V395.997C296.001 395.997 296.001 395.997 296.002 395.997C297.21 395.997 298.423 395.704 299.56 395.106Z" fill="#777575"/>
<path d="M545.352 84.4457C544.889 81.4554 543.302 78.8652 541.029 77.3876L531.814 71.3948L425.639 99.077L580.179 308.78L545.352 84.4457Z" fill="#7C7A7A"/>
<path d="M296.001 395.994C296.003 395.994 296.003 395.994 296.001 395.994V385.844L163.007 149.701L151.633 321.247L292.443 395.105C293.579 395.701 294.792 395.994 296.001 395.994Z" fill="#7C7A7A"/>
</svg>
