<svg width="261" height="339" viewBox="0 0 261 339" fill="none" xmlns="http://www.w3.org/2000/svg">
<path d="M24.6016 197.724L0 338.5H260.595C251.483 297.042 234.353 210.48 233.26 199.546C232.166 188.612 218.074 182.842 211.392 181.323C187.701 176.463 127.473 169.113 79.7275 174.945C31.9821 180.776 25.5128 192.257 24.6016 197.724Z" fill="#777575"/>
<path d="M129.842 224.148L80.1831 174.945C86.7435 171.665 153.988 171.756 182.234 176.767L129.842 224.148Z" fill="white"/>
<path d="M86.561 203.647L92.0281 161.733H168.111L172.211 203.647L129.386 191.346L86.561 203.647Z" fill="#CCCCCC"/>
<ellipse cx="70.3605" cy="107.791" rx="15.4899" ry="22.3237" transform="rotate(-16.3807 70.3605 107.791)" fill="#969191"/>
<ellipse cx="189.753" cy="105.238" rx="15.4899" ry="21.2436" transform="rotate(-0.620043 189.753 105.238)" fill="#969191"/>
<ellipse cx="131.209" cy="99.7732" rx="61.0485" ry="82.461" fill="#A8A8A8"/>
<path d="M82.0525 62.496C72.9407 74.159 75.8261 104.41 78.4078 118.077C79.3544 123.089 75.3098 124.365 72.0296 120.355C58.8176 95.2982 44.4211 38.35 92.5309 11.0149C140.641 -16.3203 178.789 13.5965 191.849 31.9718C207.201 53.5338 195.038 112.61 192.304 118.077C189.571 123.544 184.229 122.744 184.559 119.444C185.47 110.332 187.293 114.433 185.47 78.4415C131.894 88.2822 94.2014 71.9115 82.0525 62.496Z" fill="#484848"/>
<path d="M213.67 281.096C152.804 261.051 78.0573 273.2 47.8368 281.552C44.7996 288.386 38.634 303.602 38.2695 309.798C52.089 307.824 81.7324 311.165 87.9284 338.5H169.934C171.452 326.655 184.968 304.331 223.237 309.798C222.174 304.027 218.773 290.208 213.67 281.096Z" fill="#393838"/>
<path d="M35.9915 338.045L16.8569 338.045C34.6248 139.411 243.283 179.956 243.283 338.498L225.971 338.5C203.647 154.9 26.4242 225.515 35.9915 338.045Z" fill="#393838"/>
<path d="M252.221 328.87L223.975 337.526C208.029 330.692 204.84 310.191 202.562 297.435C200.74 287.23 208.181 282.552 212.13 281.489C217.445 281.186 228.257 280.122 228.986 278.3C229.715 276.478 224.127 265.696 220.786 260.077C219.16 257.343 222.608 254.61 224.886 256.888C227.767 259.769 237.49 268.429 242.654 271.922C269.26 293.061 260.118 318.695 252.221 328.87Z" fill="#A8A8A8"/>
<path d="M8.15591 328.87L36.4022 337.526C52.3478 330.692 55.5368 310.191 57.8147 297.435C59.6371 287.23 52.1958 282.552 48.2474 281.489C42.9323 281.186 32.1197 280.122 31.3908 278.3C30.6618 276.478 36.2503 265.696 39.5912 260.077C41.2166 257.343 37.7689 254.61 35.491 256.888C32.6096 259.769 22.8865 268.429 17.7232 271.922C-8.88299 293.061 0.25909 318.695 8.15591 328.87Z" fill="#A8A8A8"/>
<path d="M241.46 271.529C241.825 274.445 231.893 278.211 226.882 279.73L228.704 278.363V276.996L228.248 275.174L227.337 273.351L226.426 271.073L225.515 269.251L224.604 266.973L222.781 264.24L221.415 261.962L220.503 260.595L220.048 258.773L220.503 257.406L221.415 256.495L222.326 256.039H223.693L225.059 256.95L241.46 271.529Z" fill="#868686"/>
<path d="M19.1442 271.073C18.7797 273.989 28.7115 277.755 33.7229 279.274L31.445 277.907L31.8908 276.54L32.3464 274.718L33.2575 272.896L34.1687 270.618L35.0799 268.795L35.991 266.973L37.3578 264.24L38.7343 261.506L39.6455 260.139L40.0913 258.773L39.6455 256.95L38.7343 256.039H36.912L35.5452 256.495L19.1442 271.073Z" fill="#868686"/>
<ellipse cx="128.931" cy="311.165" rx="24.146" ry="25.9684" fill="#515151"/>
</svg>
