<svg width="389" height="389" viewBox="0 0 389 389" fill="none" xmlns="http://www.w3.org/2000/svg">
<path d="M375.677 157.096H354.753C350.624 139.329 343.637 122.67 334.263 107.626L349.06 92.8289C354.259 87.6297 354.259 79.1914 349.06 73.9923L315 39.9323C309.801 34.7332 301.363 34.7332 296.164 39.9323L281.367 54.7293C266.33 45.3634 249.671 38.3763 231.904 34.247V13.3232C231.904 5.96217 225.942 0 218.581 0H170.412C163.058 0 157.096 5.96217 157.096 13.3232V34.247C139.329 38.3763 122.67 45.3634 107.626 54.7368L92.8363 39.9398C87.6372 34.7407 79.1989 34.7407 73.9998 39.9398L39.9398 73.9998C34.7407 79.1989 34.7407 87.6372 39.9398 92.8363L54.7368 107.633C45.3634 122.67 38.3763 139.329 34.247 157.096H13.3232C5.96217 157.096 0 163.058 0 170.419V218.588C0 225.942 5.96217 231.904 13.3232 231.904H34.247C38.3763 249.671 45.3634 266.33 54.7368 281.374L39.9398 296.164C34.7407 301.37 34.7407 309.801 39.9398 315L73.9998 349.06C79.1989 354.259 87.6372 354.259 92.8363 349.06L107.633 334.263C122.677 343.629 139.337 350.624 157.104 354.753V375.677C157.096 383.038 163.058 389 170.419 389H218.588C225.942 389 231.904 383.038 231.904 375.677V354.753C249.671 350.624 266.33 343.637 281.374 334.263L296.171 349.06C301.37 354.259 309.809 354.259 315.008 349.06L349.068 315C354.267 309.801 354.267 301.363 349.068 296.164L334.271 281.367C343.637 266.33 350.624 249.663 354.761 231.896H375.684C383.038 231.904 389 225.942 389 218.581V170.412C389 163.058 383.038 157.096 375.677 157.096ZM194.5 261.827C157.313 261.827 127.173 231.679 127.173 194.5C127.173 157.313 157.313 127.173 194.5 127.173C231.687 127.173 261.827 157.313 261.827 194.5C261.827 231.679 231.687 261.827 194.5 261.827Z" fill="#777575"/>
<path d="M194.5 97.25C140.788 97.25 97.25 140.788 97.25 194.5C97.25 248.212 140.788 291.75 194.5 291.75C248.212 291.75 291.75 248.212 291.75 194.5C291.75 140.788 248.212 97.25 194.5 97.25ZM194.5 261.827C157.313 261.827 127.173 231.679 127.173 194.5C127.173 157.313 157.313 127.173 194.5 127.173C231.687 127.173 261.827 157.313 261.827 194.5C261.827 231.679 231.687 261.827 194.5 261.827Z" fill="#393838"/>
</svg>
