<svg width="333" height="333" viewBox="0 0 333 333" fill="none" xmlns="http://www.w3.org/2000/svg">
<path d="M166.5 333C258.455 333 333 258.455 333 166.5C333 74.5446 258.455 0 166.5 0C74.5446 0 0 74.5446 0 166.5C0 258.455 74.5446 333 166.5 333Z" fill="#CCCCCC"/>
<path d="M333 166.5C333 133.094 323.164 101.987 306.227 75.917C306.227 75.917 296.729 89.7924 298.513 98.7112C300.297 107.631 310.776 108.312 309.7 114.855C308.624 121.398 300.893 112.983 291.377 130.226C281.862 147.47 286.621 171.263 300.297 173.044C313.972 174.823 333 166.5 333 166.5Z" fill="#636363"/>
<path d="M210.226 5.80151C229.605 11.0619 247.58 19.7355 263.465 31.1349C263.465 31.1349 244.158 27.9506 236.845 34.4896C229.532 41.0306 218.866 56.4936 210.225 34.4896C201.585 12.4869 210.226 5.80151 210.226 5.80151Z" fill="#636363"/>
<path d="M41.3125 56.7264C71.8275 21.9533 116.599 0 166.5 0C166.5 0 155.204 6.83951 176.611 18.4347C198.019 30.0311 188.206 35.3819 183.747 38.9499C179.288 42.518 171.553 31.8145 166.5 24.6797C161.447 17.543 139.748 6.54358 123.097 12.4914C106.447 18.4392 92.1782 22.8326 94.5548 28.3661C96.9307 33.8984 125.474 23.1988 136.177 23.7906C146.881 24.3838 143.313 30.9235 133.206 38.6547C123.097 46.3859 121.906 55.8991 132.61 61.845C143.313 67.7935 156.392 68.3886 159.369 64.8212C162.344 61.2531 154.017 38.0622 174.235 48.1699C194.454 58.2776 211.105 64.2287 194.454 79.0927C177.803 93.9554 158.776 110.611 158.18 120.122C157.584 129.634 164.128 137.37 160.56 137.962C156.992 138.554 153.718 134.098 151.34 130.825C148.965 127.555 137.961 126.367 132.61 128.446C127.258 130.526 117.147 138.554 122.798 146.285C128.449 154.018 136.173 150.445 143.906 154.014C151.637 157.582 158.847 171.161 157.366 174.231C155.886 177.298 149.296 173.414 143.906 162.934C138.515 152.453 128.404 159.366 121.29 157.582C114.175 155.798 108.823 154.61 101.687 142.121C94.5509 129.635 79.7772 126.14 73.7403 118.931C56.4471 98.2812 57.6841 82.6581 54.1167 75.5227C50.5487 68.3853 41.3125 56.7264 41.3125 56.7264Z" fill="#636363"/>
<path d="M182.555 168.879C182.555 168.879 200.394 170.66 209.314 178.392C218.233 186.123 219.425 189.098 233.1 192.071C246.776 195.042 252.724 202.77 243.804 217.638C234.884 232.504 218.826 256.291 211.098 263.427C203.37 270.564 193.854 276.509 190.286 288.402C186.719 300.293 185.528 307.424 193.259 312.185C193.259 312.185 189.099 322.296 179.584 309.213C170.068 296.129 177.799 280.671 179.584 271.751C181.367 262.832 186.123 236.075 183.15 229.531C180.179 222.989 166.5 218.825 162.932 205.151C159.364 191.475 165.608 164.863 182.555 168.879Z" fill="#636363"/>
<path opacity="0.6" d="M48.7661 48.7683C113.789 -16.2558 219.209 -16.2545 284.232 48.7683C349.256 113.79 349.256 219.211 284.233 284.234C284.233 284.234 359.774 184.34 252.824 77.3894C145.872 -29.5621 48.7661 48.7683 48.7661 48.7683Z" fill="#393838"/>
</svg>
