<svg width="68" height="67" viewBox="0 0 68 67" fill="none" xmlns="http://www.w3.org/2000/svg">
<path d="M62.8756 52.4092C62.4842 52.0491 58.6233 52.2981 58.6233 52.2981L58.5793 48.2133L56.6909 46.0548L52.2146 45.9816L52.2103 45.9753C52.1914 46.0361 52.2082 41.4824 52.2082 41.4824L50.1188 39.9686C50.1188 39.9686 46.055 39.8492 46.0215 39.8179L45.6949 35.6431L41.9326 31.1898C43.2328 28.3843 43.9823 25.2668 43.9823 21.9692C43.9823 9.83627 34.1377 4.36378e-07 21.9945 4.36378e-07C9.84465 -0.00239212 0 9.83388 0 21.9668C0 34.1018 9.84465 43.94 21.99 43.94C25.3587 43.94 28.5391 43.1591 31.3927 41.8044L56.4019 66.9643C56.4019 66.9643 66.9896 66.9935 66.9896 66.9894L67.0064 56.3033C67.0064 56.3033 65.344 54.6828 62.8756 52.4092ZM17.7944 23.0556C14.9157 23.0556 12.5832 20.7085 12.5832 17.8131C12.5832 14.9176 14.9154 12.5683 17.7944 12.5683C20.6734 12.5683 23.0078 14.9173 23.0078 17.8131C23.0078 20.7088 20.6731 23.0556 17.7944 23.0556Z" fill="#C4C4C4"/>
<path d="M17.7985 10.468C13.7514 10.468 10.4705 13.7489 10.4705 17.7959C10.4705 21.8429 13.7514 25.1239 17.7985 25.1239C21.8476 25.1239 25.1264 21.8429 25.1264 17.7959C25.1264 13.7489 21.8476 10.468 17.7985 10.468ZM17.7985 20.9366C16.0648 20.9366 14.658 19.5296 14.658 17.7962C14.658 16.0606 16.065 14.6557 17.7985 14.6557C19.5321 14.6557 20.9389 16.0606 20.9389 17.7962C20.9389 19.5296 19.5321 20.9366 17.7985 20.9366Z" fill="#737373"/>
<path d="M36.424 38.5195C34.4246 40.2616 32.111 41.637 29.5756 42.573L54.438 67H64.9064L36.424 38.5195Z" fill="#737373"/>
</svg>
