<svg width="416" height="396" viewBox="0 0 416 396" fill="none" xmlns="http://www.w3.org/2000/svg">
<path d="M409.588 91.0444H121.437H51.5309H0.536657V345.056C0.479013 345.853 0.437607 346.652 0.416498 347.454C0.413251 347.562 0.413251 347.67 0.416498 347.778C0.437607 348.562 0.479013 349.343 0.536657 350.121V350.132H0.537468C1.42891 362.079 6.60385 373.181 15.2626 381.605C24.5075 390.601 36.7125 395.554 49.6295 395.554H409.588C412.955 395.554 415.684 392.831 415.684 389.473V97.1262C415.684 93.7675 412.955 91.0444 409.588 91.0444Z" fill="#CCCCCC"/>
<path d="M409.588 370.708H49.6295C36.7125 370.708 24.5075 365.754 15.2626 356.76C6.60385 348.334 1.42891 337.233 0.537468 325.286H0.536657V345.058C0.479013 345.854 0.437607 346.654 0.416498 347.456C0.413251 347.563 0.413251 347.671 0.416498 347.779C0.437607 348.564 0.479013 349.345 0.536657 350.122V350.134H0.537468C1.42891 362.081 6.60385 373.182 15.2626 381.607C24.5075 390.603 36.7125 395.556 49.6295 395.556H409.588C412.955 395.556 415.684 392.833 415.684 389.474V364.627C415.684 367.985 412.955 370.708 409.588 370.708Z" fill="#BFBFBF"/>
<path d="M121.445 93.1632C120.288 91.7375 118.547 90.9094 116.709 90.9094H51.1492C47.7815 90.9094 45.0527 93.6325 45.0527 96.9912V165.434C45.0527 167.07 45.7136 168.637 46.886 169.782C48.0258 170.894 49.5571 171.515 51.1492 171.515C51.1938 171.515 51.2393 171.515 51.2839 171.514C74.4631 171.002 94.2146 157.984 108.405 133.866C118.77 116.248 122.518 98.9795 122.673 98.2529C123.053 96.4586 122.603 94.5889 121.445 93.1632Z" fill="#7C7A7A"/>
<path d="M412.469 93.2091C411.313 91.7558 409.554 90.9082 407.695 90.9082H253.09C251.961 90.9082 250.854 91.2216 249.893 91.8118C240.004 97.8871 233.422 102.414 229.769 105.652C226.512 108.54 224.919 112.289 225.163 116.494C225.491 122.136 229.341 127.79 233.637 132.414C217.157 134.025 191.134 138.364 175.747 150.026C164.984 158.183 161.03 165.566 163.995 171.968C167.096 178.67 176.547 184.152 223.136 173.984C240.101 170.283 251.434 171.375 257.955 172.945C265.717 174.812 269.899 178.102 271.222 180.558C272.067 182.123 271.582 182.791 270.965 183.391C266.81 187.428 249.514 191.256 214.443 188.756C199.739 187.71 194.004 194.117 186.079 202.989C182.927 206.517 179.355 210.515 174.39 215.138C169.368 219.814 161.486 229.289 165.12 240.216C168.79 251.256 182.573 258.639 203.93 261.001C226.125 263.457 237.16 273.674 238.663 293.154C239.276 301.096 236.87 305.329 233.822 310.686C231.909 314.049 229.741 317.862 228.263 322.775C224.08 336.685 226.734 360.209 245.732 368.954C248.585 370.268 251.485 370.842 254.382 370.841C269.715 370.838 284.918 354.76 292.06 347.206C292.775 346.45 293.391 345.798 293.893 345.286C298.4 340.699 299.903 331.465 301.842 316.8C302.659 310.616 303.586 303.606 304.716 300.978C306.531 296.751 319.493 284.691 330.461 275.941C331.832 274.847 332.665 273.216 332.744 271.467C332.825 269.717 332.143 268.018 330.878 266.804C330.766 266.698 319.662 256.025 309.892 243.86C295.613 226.08 294.958 218.486 295.912 217.061C298.502 213.185 300.536 212.565 301.842 212.436C308.907 211.746 321.448 223.346 330.261 232.137C332.09 233.961 336.172 236.773 342.972 235.114C357.292 231.618 376.817 209.386 383.285 189.264C396.503 157.506 407.561 124.389 413.634 98.3702C414.053 96.563 413.626 94.6632 412.469 93.2091Z" fill="#7C7A7A"/>
<path d="M155.176 175.849C153.123 171.068 149.956 167.831 145.762 166.226C137.198 162.95 127.141 167.595 117.411 172.086C115.324 173.05 113.353 173.96 111.403 174.793C94.314 182.096 82.7618 210.943 90.0922 228.011C92.1406 232.78 95.3573 236.053 99.6521 237.736C101.894 238.615 104.243 238.991 106.672 238.991C114.277 238.991 122.645 235.291 130.802 231.683C132.235 231.049 133.652 230.422 135.04 229.829C143.185 226.348 150.221 217.766 154.343 206.285C158.307 195.242 158.618 183.864 155.176 175.849Z" fill="#7C7A7A"/>
<path d="M216.526 387.494C216.369 387.005 212.599 375.375 203.516 364.083C191.112 348.66 174.801 341.229 156.361 342.594C137.731 343.972 133.617 339.823 129.263 335.432C123.416 329.532 117.723 325.127 102.373 326.477C69.6099 329.361 44.7168 384.523 43.6736 386.87C42.8365 388.751 43.0103 390.927 44.1355 392.651C45.26 394.377 47.1825 395.418 49.2463 395.418H210.716C212.66 395.418 214.489 394.491 215.637 392.926C216.785 391.361 217.115 389.342 216.526 387.494Z" fill="#7C7A7A"/>
<path d="M412.483 245.559C410.726 244.442 408.521 244.297 406.632 245.174C404.872 245.992 363.505 265.548 364.012 295.198C364.142 302.716 356.706 310.546 348.096 319.612C333.176 335.323 312.745 356.838 324.403 391.283C325.24 393.755 327.563 395.42 330.179 395.42H409.206C412.574 395.42 415.302 392.697 415.302 389.338V250.687C415.303 248.609 414.24 246.675 412.483 245.559Z" fill="#777575"/>
<path d="M134.662 296.126C132.024 296.126 129.593 294.405 128.814 291.752C127.867 288.53 129.719 285.153 132.948 284.207C132.975 284.199 135.676 283.404 140.395 281.743C143.57 280.628 147.053 282.287 148.172 285.455C149.293 288.622 147.627 292.096 144.452 293.213C139.384 294.997 136.499 295.843 136.378 295.878C135.806 296.046 135.229 296.126 134.662 296.126ZM165.138 284.588C162.786 284.588 160.546 283.221 159.545 280.932C158.201 277.854 159.613 274.269 162.699 272.928C165.125 271.875 167.585 270.775 170.015 269.659C173.076 268.255 176.695 269.592 178.102 272.643C179.51 275.694 178.171 279.306 175.111 280.71C172.607 281.859 170.07 282.994 167.568 284.08C166.776 284.424 165.95 284.588 165.138 284.588ZM194.435 270.442C192.255 270.442 190.148 269.274 189.051 267.221C187.466 264.257 188.59 260.574 191.56 258.993C193.911 257.742 196.28 256.453 198.597 255.161C201.534 253.522 205.249 254.571 206.893 257.505C208.535 260.437 207.482 264.142 204.543 265.781C202.157 267.111 199.72 268.438 197.298 269.727C196.385 270.212 195.404 270.442 194.435 270.442ZM222.52 254.06C220.509 254.06 218.541 253.069 217.377 251.253C215.564 248.423 216.393 244.662 219.23 242.854C221.476 241.421 223.732 239.95 225.935 238.482C228.735 236.616 232.52 237.367 234.392 240.16C236.262 242.953 235.509 246.729 232.71 248.595C230.437 250.11 228.113 251.625 225.797 253.102C224.781 253.75 223.643 254.06 222.52 254.06ZM249.178 235.475C247.342 235.475 245.528 234.651 244.328 233.084C242.284 230.415 242.796 226.598 245.473 224.559C247.576 222.958 249.698 221.305 251.78 219.648C254.409 217.552 258.247 217.982 260.348 220.606C262.448 223.231 262.018 227.058 259.386 229.154C257.237 230.865 255.045 232.573 252.874 234.226C251.769 235.068 250.468 235.475 249.178 235.475ZM274.117 214.666C272.468 214.666 270.824 214.003 269.623 212.695C267.346 210.219 267.513 206.372 269.994 204.102C271.963 202.302 273.922 200.467 275.816 198.649C278.244 196.319 282.104 196.396 284.436 198.816C286.771 201.236 286.696 205.087 284.268 207.416C282.304 209.3 280.275 211.201 278.236 213.067C277.066 214.137 275.589 214.666 274.117 214.666ZM296.986 191.621C295.537 191.621 294.083 191.109 292.92 190.068C290.412 187.826 290.201 183.982 292.449 181.48C294.232 179.496 295.997 177.481 297.693 175.492C299.875 172.934 303.723 172.624 306.287 174.801C308.851 176.978 309.162 180.816 306.98 183.373C305.215 185.442 303.381 187.537 301.528 189.598C300.324 190.939 298.659 191.621 296.986 191.621ZM317.39 166.389C316.152 166.389 314.904 166.015 313.825 165.238C311.095 163.271 310.481 159.47 312.452 156.747C313.997 154.613 315.535 152.425 317.027 150.245C318.922 147.47 322.714 146.753 325.499 148.645C328.28 150.537 328.998 154.321 327.101 157.096C325.549 159.367 323.947 161.645 322.337 163.868C321.145 165.514 319.281 166.389 317.39 166.389Z" fill="#504F4F"/>
<path d="M112.793 295.094L122.278 285.634C124.658 283.259 124.658 279.407 122.278 277.033C119.897 274.659 116.037 274.658 113.656 277.033L104.171 286.494L94.6868 277.033C92.3056 274.659 88.4451 274.659 86.0646 277.033C83.6842 279.408 83.6842 283.26 86.0646 285.634L95.549 295.094L86.0646 304.555C83.6842 306.93 83.6842 310.782 86.0646 313.156C87.2548 314.344 88.8153 314.938 90.3765 314.938C91.937 314.938 93.4966 314.344 94.6884 313.156L104.173 303.696L113.657 313.156C114.848 314.343 116.408 314.938 117.969 314.938C119.53 314.938 121.089 314.344 122.281 313.156C124.661 310.782 124.661 306.93 122.281 304.555L112.793 295.094Z" fill="#444444"/>
<path d="M327.021 0C294.047 0 267.22 26.7604 267.22 59.6546C267.22 107.149 321.001 149.209 323.29 150.978C324.388 151.825 325.704 152.249 327.021 152.249C328.337 152.249 329.653 151.825 330.751 150.978C331.32 150.537 344.855 140.024 358.547 123.712C377.309 101.359 386.822 79.8072 386.822 59.6554C386.823 26.7604 359.996 0 327.021 0ZM327.021 38.2867C338.851 38.2867 348.441 47.8531 348.441 59.6538C348.441 71.4545 338.85 81.0209 327.021 81.0209C315.192 81.0209 305.601 71.4545 305.601 59.6538C305.601 47.8531 315.191 38.2867 327.021 38.2867Z" fill="#5A5A5A"/>
<path d="M327.022 0C323.365 0 319.79 0.346674 316.313 0.977506C344.191 6.02903 365.405 30.409 365.405 59.6546C365.405 79.8072 355.892 101.359 337.129 123.711C329.351 132.978 321.627 140.369 316.299 145.11C320.188 148.557 322.822 150.615 323.292 150.977C324.39 151.824 325.706 152.248 327.022 152.248C328.338 152.248 329.654 151.824 330.753 150.977C331.322 150.537 344.857 140.023 358.548 123.711C377.311 101.359 386.824 79.8063 386.824 59.6546C386.824 26.7604 359.997 0 327.022 0Z" fill="#444444"/>
<path d="M48.8477 297.963C51.7128 297.963 54.5146 298.223 57.2433 298.695V25.6851C57.2433 22.3263 54.5138 19.6033 51.1469 19.6033C22.9446 19.6033 0 42.4918 0 70.6243V346.69C0 319.779 21.8697 297.963 48.8477 297.963Z" fill="#605E5E"/>
<path d="M28.0749 25.1123C11.4354 33.5396 0 50.7694 0 70.6248V341.82C0.0828119 341.783 0.168871 341.747 0.252495 341.71C2.01834 324.356 12.9178 309.702 28.0765 302.585L28.0749 25.1123Z" fill="#504F4F"/>
<path d="M409.205 370.573H320.963C320.851 376.914 321.867 383.792 324.402 391.282C325.239 393.753 327.562 395.419 330.178 395.419H409.204C412.572 395.419 415.301 392.695 415.301 389.337V364.491C415.303 367.849 412.573 370.573 409.205 370.573Z" fill="#5A5A5A"/>
<path d="M208.189 370.573H52.2162C47.077 379.313 44.0243 386.081 43.6736 386.87C42.8365 388.752 43.0103 390.927 44.1355 392.652C45.26 394.377 47.1825 395.418 49.2463 395.418H210.717C212.661 395.418 214.489 394.492 215.638 392.926C216.786 391.36 217.117 389.342 216.527 387.493C216.399 387.099 213.917 379.447 208.189 370.573Z" fill="#5A5A5A"/>
</svg>
