<svg width="76" height="76" viewBox="0 0 76 76" fill="none" xmlns="http://www.w3.org/2000/svg">
<path d="M37.9994 0C17.0131 0 0 17.0136 0 37.9994C0 58.9851 17.0131 76 37.9994 76C58.9856 76 76 58.9851 76 37.9994C76 17.0136 58.9856 0 37.9994 0ZM54.4275 45.2268H38.3173C38.2628 45.2268 38.2122 45.2137 38.1582 45.2116C38.1042 45.2142 38.0538 45.2268 37.9991 45.2268C36.5477 45.2268 35.371 44.0501 35.371 42.5987V15.77C35.371 14.3186 36.5477 13.1419 37.9991 13.1419C39.4505 13.1419 40.6272 14.3186 40.6272 15.77V39.9706H54.4265C55.8779 39.9706 57.0547 41.1473 57.0547 42.5987C57.0547 44.0501 55.8789 45.2268 54.4275 45.2268Z" fill="#737373"/>
</svg>
