<svg width="342" height="342" viewBox="0 0 342 342" fill="none" xmlns="http://www.w3.org/2000/svg">
<path d="M227.56 227.482L219.26 235.786L198.414 256.625L273.363 331.575C287.159 345.37 309.528 345.37 323.326 331.575L327.49 327.411L227.56 227.482Z" fill="#636363"/>
<path d="M227.561 227.482L327.49 327.411L331.654 323.248C345.449 309.45 345.449 287.08 331.654 273.282L256.705 198.333L235.865 219.178L227.561 227.482Z" fill="#393838"/>
<path d="M11.0406 10.9617L2.73975 19.2654L23.5249 65.0767L51.0238 67.6098L131.815 148.341L140.119 140.037L11.0406 10.9617Z" fill="#636363"/>
<path d="M148.419 131.736L67.6882 50.9449L65.1551 23.446L19.3438 2.65796L11.04 10.9617L140.118 140.037L148.419 131.736Z" fill="#393838"/>
<path d="M198.417 198.336L206.718 190.032L235.864 219.178L227.563 227.482L198.417 198.336Z" fill="#393838"/>
<path d="M190.113 206.636L198.417 198.335L227.563 227.482L219.26 235.786L190.113 206.636Z" fill="#636363"/>
<path d="M227.561 227.479L235.865 219.176L235.868 219.178L227.564 227.482L227.561 227.479Z" fill="#78B9EB"/>
<path d="M219.257 235.78L227.561 227.479L227.563 227.482L219.263 235.786L219.257 235.78Z" fill="#78B9EB"/>
<path d="M333.672 54.7717L289.272 99.1138L251.822 86.6295L14.4849 323.967L18.6367 328.116C32.4523 341.897 54.816 341.897 68.6315 328.116L234.686 162.062C264.281 169.986 295.828 160.845 316.601 138.329C337.375 115.813 343.951 83.6335 333.672 54.7717Z" fill="#A8A8A8"/>
<path d="M283.68 4.77975C254.818 -5.49926 222.638 1.07643 200.122 21.8501C177.606 42.6237 168.466 74.171 176.39 103.766L10.3358 269.82C-3.44526 283.636 -3.44526 305.999 10.3358 319.815L14.4848 323.935L169.265 169.186L251.822 86.6294L239.338 49.1793L283.68 4.77975Z" fill="#777575"/>
</svg>
