<svg width="408" height="512" viewBox="0 0 408 512" fill="none" xmlns="http://www.w3.org/2000/svg">
<path d="M76.499 206.5V76.5L274.499 69V206.5H76.499Z" fill="#E20707"/>
<path d="M271.499 210L204.999 269L380.999 271.5L340.999 198.5L386.999 134.5H271.499V210Z" fill="#A90505"/>
<path d="M407.998 117.383H287.646V54.6258H86.9401V29.9966H103.32V0H40.5634V29.9966H56.9436V428.678C24.5982 434.599 0 462.972 0 497.002V512H143.884V497.002C143.884 462.973 119.285 434.599 86.9401 428.678V223.026H172.476V285.783H407.999L357.094 201.582L407.998 117.383ZM110.927 482.003H32.9563C38.8726 467.651 53.015 457.521 69.4761 457.521H74.4066C90.8687 457.52 105.011 467.65 110.927 482.003ZM86.9401 84.6224H257.65V193.029H86.9401V84.6224ZM227.007 223.026L202.472 241.104V223.026H227.007ZM354.811 255.786H233.115L287.646 215.607V147.378H354.811L322.041 201.581L354.811 255.786Z" fill="black"/>
<path d="M187.999 213V267" stroke="black"/>
</svg>
