<svg width="150" height="150" viewBox="0 0 150 150" fill="none" xmlns="http://www.w3.org/2000/svg">
<rect width="150" height="150" rx="40" fill="#CECECE"/>
<path d="M52.3271 78.9551H37.6006C35.5673 78.9551 33.9189 80.6034 33.9189 82.6367V108.408C33.9189 110.442 35.5673 112.09 37.6006 112.09H52.3271C54.3605 112.09 56.0088 110.442 56.0088 108.408V82.6367C56.0088 80.6034 54.3605 78.9551 52.3271 78.9551Z" fill="#131313"/>
<path d="M78.7553 54.8284C78.3056 54.3786 77.7471 54.0529 77.1341 53.8831C76.5212 53.7134 75.8747 53.7053 75.2577 53.8597L54.4321 59.0664C53.8001 59.2245 53.2213 59.5474 52.7549 60.0022C52.2885 60.457 51.9511 61.0274 51.7772 61.6552C51.6033 62.283 51.599 62.9457 51.7649 63.5757C51.9308 64.2056 52.2609 64.7803 52.7215 65.241L68.3422 80.8613C68.8029 81.322 69.3776 81.6522 70.0076 81.8182C70.6376 81.9842 71.3003 81.98 71.9282 81.8061C72.5561 81.6322 73.1265 81.2949 73.5814 80.8284C74.0363 80.362 74.3592 79.7832 74.5172 79.1512L79.7231 58.3246C79.8773 57.7079 79.8693 57.0617 79.6997 56.449C79.5301 55.8363 79.2047 55.278 78.7553 54.8284Z" fill="#A9A9A9"/>
<path d="M86.5664 88.6714L44.9123 47.0169C44.5705 46.6749 44.1646 46.4036 43.7178 46.2186C43.2711 46.0335 42.7923 45.9382 42.3087 45.9382C41.8252 45.9382 41.3464 46.0335 40.8996 46.2186C40.4529 46.4036 40.047 46.6749 39.7051 47.0169C36.6282 50.0938 34.1875 53.7467 32.5222 57.7669C30.857 61.7871 30 66.096 30 70.4474C30 74.7989 30.8571 79.1077 32.5224 83.1279C34.1876 87.1481 36.6284 90.801 39.7054 93.8779C42.7823 96.9548 46.4352 99.3956 50.4554 101.061C54.4756 102.726 58.7845 103.583 63.1359 103.583C67.4874 103.583 71.7962 102.726 75.8164 101.061C79.8366 99.3954 83.4895 96.9546 86.5664 93.8777C87.2568 93.1873 87.6446 92.2509 87.6446 91.2745C87.6446 90.2982 87.2568 89.3618 86.5664 88.6714Z" fill="#666666"/>
<path d="M85.4311 87.5374C80.7719 91.6284 75.0574 94.3286 68.9386 95.3305C62.8198 96.3325 56.5425 95.5959 50.8219 93.2047C45.1012 90.8134 40.1671 86.8637 36.5815 81.8053C32.9959 76.7469 30.9029 70.7832 30.5411 64.5934C29.2912 71.5368 30.291 78.6979 33.3947 85.0334C36.4984 91.369 41.544 96.548 47.7964 99.8161C54.0487 103.084 61.1812 104.271 68.1549 103.202C75.1285 102.134 81.5789 98.8674 86.5664 93.8777C87.2567 93.1872 87.6446 92.2509 87.6446 91.2745C87.6446 90.2982 87.2567 89.3618 86.5664 88.6714L85.4311 87.5374Z" fill="#3D3C3C"/>
<path d="M120.448 67.832C121.259 68.7707 121.664 69.752 121.664 70.776C121.664 72.0133 121.173 73.1013 120.192 74.04C119.253 74.936 118.165 75.384 116.928 75.384C115.648 75.384 114.56 74.8507 113.664 73.784L101.632 59.064L89.472 73.784C88.5333 74.8507 87.4453 75.384 86.208 75.384C85.0133 75.384 83.9253 74.936 82.944 74.04C82.0053 73.1013 81.536 72.0133 81.536 70.776C81.536 69.7093 81.92 68.728 82.688 67.832L95.808 52.216L83.136 37.048C82.3253 36.1093 81.92 35.128 81.92 34.104C81.92 32.8667 82.3893 31.8 83.328 30.904C84.3093 29.9653 85.3973 29.496 86.592 29.496C87.872 29.496 88.9813 30.0507 89.92 31.16L101.632 45.304L113.216 31.16C114.155 30.0507 115.264 29.496 116.544 29.496C117.739 29.496 118.805 29.9653 119.744 30.904C120.725 31.8 121.216 32.8667 121.216 34.104C121.216 35.1707 120.832 36.152 120.064 37.048L107.392 52.216L120.448 67.832Z" fill="#696969"/>
</svg>
