<svg xmlns="http://www.w3.org/2000/svg" viewBox="0 0 24 24" x="0px" y="0px"><title>dashboard</title><path d="M15.22,8.78a.51.51,0,0,0-.71,0l-2.37,2.37a1.52,1.52,0,1,0,.71.71l2.37-2.37A.51.51,0,0,0,15.22,8.78ZM11.5,13a.5.5,0,1,1,.5-.5A.5.5,0,0,1,11.5,13Z"/><path d="M5.14,19.36a.54.54,0,0,0,.35-.14L6.9,17.8a.49.49,0,0,0-.7-.7l-1,1A8.49,8.49,0,0,1,3,13H4.5a.5.5,0,0,0,0-1H3A8.49,8.49,0,0,1,5.15,6.86l1,1a.48.48,0,0,0,.7,0,.48.48,0,0,0,0-.7l-1-1A8.49,8.49,0,0,1,11,4V5.5a.5.5,0,0,0,1,0V4a8.49,8.49,0,0,1,5.14,2.13l-1,1a.48.48,0,0,0,0,.7.48.48,0,0,0,.7,0l1.05-1A8.45,8.45,0,0,1,20,12H18.5a.5.5,0,0,0,0,1H20a8.45,8.45,0,0,1-2.12,5.14l-1.05-1a.49.49,0,0,0-.7.7l1.41,1.42a.52.52,0,0,0,.71,0A9.47,9.47,0,0,0,21,12.53a0,0,0,0,0,0-.06A9.5,9.5,0,1,0,4.78,19.22.54.54,0,0,0,5.14,19.36Z"/></svg>