<svg xmlns="http://www.w3.org/2000/svg" viewBox="0 0 64 64" x="0px" y="0px"><title>Artboard 11</title><g data-name="Layer 2"><path d="M28,53.7A2.3,2.3,0,0,0,30.3,56h3.4A2.3,2.3,0,0,0,36,53.7V24.3A2.3,2.3,0,0,0,33.7,22H30.3A2.3,2.3,0,0,0,28,24.3Zm2-29.4a.31.31,0,0,1,.3-.3h3.4a.31.31,0,0,1,.3.3V53.7a.31.31,0,0,1-.3.3H30.3a.31.31,0,0,1-.3-.3Z"/><path d="M18,53.7A2.3,2.3,0,0,0,20.3,56h3.4A2.3,2.3,0,0,0,26,53.7V31.3A2.3,2.3,0,0,0,23.7,29H20.3A2.3,2.3,0,0,0,18,31.3Zm2-22.4a.31.31,0,0,1,.3-.3h3.4a.31.31,0,0,1,.3.3V53.7a.31.31,0,0,1-.3.3H20.3a.31.31,0,0,1-.3-.3Z"/><path d="M8,53.7A2.3,2.3,0,0,0,10.3,56h3.4A2.3,2.3,0,0,0,16,53.7V39.3A2.3,2.3,0,0,0,13.7,37H10.3A2.3,2.3,0,0,0,8,39.3Zm2-14.4a.31.31,0,0,1,.3-.3h3.4a.31.31,0,0,1,.3.3V53.7a.31.31,0,0,1-.3.3H10.3a.31.31,0,0,1-.3-.3Z"/><path d="M38,45v8.7A2.3,2.3,0,0,0,40.3,56h3.4A2.31,2.31,0,0,0,46,53.94c.34,0,.68.06,1,.06s.68,0,1-.06A2.31,2.31,0,0,0,50.3,56h3.4A2.3,2.3,0,0,0,56,53.7V10.3A2.3,2.3,0,0,0,53.7,8H50.3A2.3,2.3,0,0,0,48,10.3V36.06c-.33,0-.67-.06-1-.06h-.15a7.91,7.91,0,0,0-.85.06V17.3A2.3,2.3,0,0,0,43.7,15H40.3A2.3,2.3,0,0,0,38,17.3Zm5.7,9H40.3a.31.31,0,0,1-.3-.3V50.65l.11.12c.17.21.36.4.54.59l.2.21c.25.23.51.44.78.65l.32.21c.19.13.38.26.58.37s.24.14.37.2.47.23.71.33l.21.09a.29.29,0,0,1,.18.28A.31.31,0,0,1,43.7,54ZM54,53.7a.31.31,0,0,1-.3.3H50.3a.31.31,0,0,1-.3-.3.29.29,0,0,1,.18-.28l.11,0c.34-.14.67-.29,1-.46h0a8.32,8.32,0,0,0,1-.63l0,0A8.89,8.89,0,0,0,54,50.65ZM50,10.3a.31.31,0,0,1,.3-.3h3.4a.31.31,0,0,1,.3.3v29l-.08-.09a8.18,8.18,0,0,0-.75-.81l0,0a7.9,7.9,0,0,0-.84-.69l-.14-.1a7.85,7.85,0,0,0-.92-.57L51.05,37a7,7,0,0,0-1-.44l0,0ZM46.87,38H47a7.11,7.11,0,0,1,1.69.2l.14,0A7,7,0,0,1,54,45a8,8,0,0,1-.09,1.11c0,.19-.09.36-.13.54s-.08.35-.13.51a5,5,0,0,1-.26.64c0,.11-.09.23-.15.35s-.24.42-.37.62a2.9,2.9,0,0,1-.19.29,6.12,6.12,0,0,1-.45.56c-.08.09-.16.19-.25.28a5.23,5.23,0,0,1-.49.45l-.35.28c-.16.12-.33.23-.51.34l-.46.26-.5.23a7.56,7.56,0,0,1-.91.32,7.19,7.19,0,0,1-3.51,0,6.64,6.64,0,0,1-.79-.26,5.88,5.88,0,0,1-.91-.44L43.4,51a8.27,8.27,0,0,1-.83-.59l-.18-.15a8.16,8.16,0,0,1-.71-.73l-.12-.14a8,8,0,0,1-.62-.9,6.88,6.88,0,0,1-.7-1.65A7.38,7.38,0,0,1,40,45a6.68,6.68,0,0,1,.13-1.36,6.77,6.77,0,0,1,.65-1.85A7.09,7.09,0,0,1,45,38.3l.27-.08h0A6.45,6.45,0,0,1,46.87,38ZM40,17.3a.31.31,0,0,1,.3-.3h3.4a.31.31,0,0,1,.3.3V36.51l-.16.07c-.28.11-.56.23-.82.36l-.22.11a9,9,0,0,0-.94.57l-.19.15a7.34,7.34,0,0,0-.69.56l-.23.21c-.25.25-.5.51-.73.78l0,0Z"/><path d="M42.76,40.76a1,1,0,0,0,0,1.41L45.59,45l-2.83,2.83a1,1,0,0,0,0,1.41,1,1,0,0,0,1.41,0L47,46.41l2.83,2.83a1,1,0,0,0,1.41,0,1,1,0,0,0,0-1.41L48.41,45l2.83-2.83a1,1,0,0,0-1.41-1.41L47,43.59l-2.83-2.83A1,1,0,0,0,42.76,40.76Z"/></g><text x="0" y="79" fill="#000000" font-size="5px" font-weight="bold" font-family="'Helvetica Neue', Helvetica, Arial-Unicode, Arial, Sans-serif">Created by endang firmansyah</text><text x="0" y="84" fill="#000000" font-size="5px" font-weight="bold" font-family="'Helvetica Neue', Helvetica, Arial-Unicode, Arial, Sans-serif">from the Noun Project</text></svg>