<svg width="98" height="69" viewBox="0 0 98 69" fill="none" xmlns="http://www.w3.org/2000/svg">
<path d="M77.6013 27.8589L57.7364 56.5586V56.5605C60.8923 63.8761 68.1688 69 76.6448 69C88.0123 69 97.2272 59.7851 97.2272 48.4177C97.2272 37.3699 88.5257 28.3587 77.6013 27.8589Z" fill="#737373"/>
<path d="M83.0584 29.0116C83.0584 28.9595 83.0571 28.9079 83.0569 28.8558C81.3279 28.2898 79.4982 27.9457 77.6013 27.8589L57.7364 56.5586V56.5605C58.4772 58.2777 59.4476 59.8719 60.6046 61.3098C62.1234 60.7466 63.5921 60.0798 65.0004 59.3161C74.4517 54.1959 81.2382 44.7795 82.7418 33.6872C82.9515 32.1582 83.0584 30.5964 83.0584 29.0116Z" fill="#494949"/>
<path d="M77.3583 32.9495L62.4155 54.5354C64.7894 60.0456 70.2643 63.9034 76.6448 63.9034C85.1972 63.9034 92.1306 56.9701 92.1306 48.4177C92.1306 40.1042 85.5795 33.3219 77.3583 32.9495Z" fill="#C4C4C4"/>
<path d="M82.6716 34.1534C81.026 33.4572 79.2367 33.0345 77.3585 32.9495L62.4157 54.5354C63.1449 56.2283 64.1679 57.7642 65.4189 59.0812C74.5188 53.9859 81.0675 44.878 82.6716 34.1534Z" fill="#ABA4A4"/>
<path d="M39.4889 56.558L19.6256 27.8589C8.70145 28.3587 0 37.3699 0 48.4177C0 59.7851 9.21493 69 20.5824 69C29.0584 69 36.3347 63.8761 39.4908 56.5605V56.5586C39.4902 56.5584 39.4894 56.5582 39.4889 56.558Z" fill="#737373"/>
<path d="M19.6258 27.8589C17.729 27.9457 15.8993 28.2898 14.1703 28.8558C14.1701 28.9079 14.1688 28.9595 14.1688 29.0116C14.1688 30.5964 14.2759 32.1582 14.4853 33.6872C15.9887 44.7793 22.7753 54.1959 32.2268 59.3161C33.6353 60.0798 35.1038 60.7466 36.6226 61.3098C37.7796 59.8719 38.75 58.2777 39.4908 56.5605V56.5586C39.4902 56.5584 39.4896 56.5582 39.4891 56.558L19.6258 27.8589Z" fill="#494949"/>
<path d="M19.8689 32.9495C11.6477 33.3219 5.09666 40.1042 5.09666 48.4175C5.09666 56.9699 12.03 63.9032 20.5824 63.9032C26.9629 63.9032 32.4378 60.0455 34.8117 54.5352L19.8689 32.9495Z" fill="#C4C4C4"/>
<path d="M31.8083 59.0812C33.0593 57.764 34.0823 56.2283 34.8115 54.5354L19.8689 32.9495C17.9906 33.0345 16.2014 33.4576 14.5558 34.1534C16.1596 44.878 22.7084 53.9859 31.8083 59.0812Z" fill="#ABA4A4"/>
<path d="M77.6014 27.8589C76.9977 12.3711 64.2503 0.000244141 48.6136 0.000244141C32.9769 0.000244141 20.2295 12.3713 19.6258 27.8589C19.6101 28.2411 19.6023 28.6253 19.6023 29.0115C19.6023 30.3465 19.6925 31.6617 19.8689 32.9496C21.1351 42.292 26.8512 50.2232 34.8117 54.5356C36.2977 55.3413 37.8618 56.0213 39.4908 56.5585V56.5605C42.3586 57.5092 45.4264 58.0228 48.6136 58.0228C51.8008 58.0228 54.8686 57.5092 57.7364 56.5605V56.5585C59.3654 56.0215 60.9296 55.3413 62.4155 54.5356C70.376 50.223 76.0921 42.292 77.3583 32.9496C77.5347 31.6617 77.6249 30.3465 77.6249 29.0115C77.6249 28.6253 77.6171 28.2411 77.6014 27.8589Z" fill="#737373"/>
<path d="M50.076 56.5604V56.5585C48.4471 56.0215 46.8829 55.3413 45.3969 54.5355C37.4365 50.223 31.7204 42.2919 30.4541 32.9496C30.2777 31.6617 30.1875 30.3465 30.1875 29.0115C30.1875 28.6252 30.1953 28.2411 30.2111 27.8588C30.7451 14.1617 40.7777 2.90409 53.9062 0.483858C52.1899 0.16749 50.4216 0 48.6136 0C32.9769 0 20.2295 12.371 19.6258 27.8586C19.6101 28.2409 19.6023 28.625 19.6023 29.0113C19.6023 30.3463 19.6925 31.6615 19.8689 32.9494C21.1351 42.2917 26.8512 50.223 34.8117 54.5353C36.2977 55.3411 37.8618 56.0211 39.4908 56.5583V56.5602C42.3586 57.5089 45.4264 58.0226 48.6136 58.0226C50.421 58.0226 52.1903 57.857 53.9062 57.541C52.5963 57.2999 51.3174 56.9711 50.076 56.5604Z" fill="#494949"/>
<path d="M66.2282 12.2613C61.8824 7.69395 55.7803 4.81454 49.0057 4.70858C48.8764 4.70668 48.745 4.70459 48.6136 4.70459C35.19 4.70459 24.3068 15.5878 24.3068 29.0114C24.3068 29.0761 24.3068 29.1428 24.3087 29.2074C24.4126 42.5408 35.2545 53.3182 48.6136 53.3182C62.0372 53.3182 72.9204 42.435 72.9204 29.0114C72.9204 22.5192 70.3741 16.621 66.2282 12.2613Z" fill="#C4C4C4"/>
<path d="M27.054 31.3636C27.0521 31.2989 27.0521 31.2322 27.0521 31.1677C27.0521 17.744 37.9353 6.86087 51.3589 6.86087C51.4903 6.86087 51.6215 6.86277 51.7511 6.86486C56.6371 6.94119 61.1732 8.46094 64.9531 11.0154C60.7256 7.17572 55.1415 4.80447 49.0059 4.70858C48.8766 4.70668 48.7452 4.70459 48.6138 4.70459C35.1902 4.70459 24.307 15.5878 24.307 29.0114C24.307 29.0761 24.307 29.1428 24.3089 29.2074C24.3736 37.5163 28.6089 44.8321 35.024 49.1661C30.1721 44.7603 27.1091 38.4202 27.054 31.3636Z" fill="#ABA4A4"/>
<path d="M59.1988 41.2944V42.9959C59.1988 44.2583 58.1757 45.2815 56.9132 45.2815H40.314C39.0515 45.2815 38.0284 44.2583 38.0284 42.9959V41.2944C38.0284 40.032 39.0515 39.0088 40.314 39.0088H56.9132C58.1757 39.0088 59.1988 40.032 59.1988 41.2944Z" fill="#494949"/>
<path d="M51.2106 29.596C50.5988 29.596 50.0275 29.2112 49.8192 28.5996C49.5572 27.8312 49.9679 26.9957 50.7364 26.7336L62.2391 22.8132C63.0076 22.5517 63.8431 22.9617 64.105 23.7306C64.367 24.4989 63.9563 25.3345 63.1878 25.5965L51.6852 29.517C51.5281 29.5705 51.368 29.596 51.2106 29.596Z" fill="#494949"/>
<path d="M51.2108 28.1252C51.7009 29.5601 50.9345 31.1204 49.4995 31.6085C48.0646 32.0986 46.5042 31.3322 46.0162 29.8971C45.5261 28.4623 46.2925 26.9019 47.7275 26.4138C49.1624 25.9239 50.7228 26.6903 51.2108 28.1252Z" fill="#494949"/>
<path d="M48.6136 4.70459C48.2523 4.70459 47.893 4.71408 47.5356 4.72966V8.0369C47.5356 8.8489 48.1938 9.50708 49.0058 9.50708C49.818 9.50708 50.4759 8.8489 50.4759 8.0369V4.77732C49.9896 4.74048 49.4997 4.71636 49.0058 4.70858C48.8763 4.70649 48.745 4.70459 48.6136 4.70459Z" fill="#494949"/>
<path d="M66.2283 12.2611C65.8903 11.906 65.5407 11.5623 65.1821 11.2283L63.0169 13.3935C62.4429 13.9675 62.4429 14.8986 63.0169 15.4725C63.3041 15.7594 63.6804 15.9032 64.0566 15.9032C64.4328 15.9032 64.8092 15.7596 65.0963 15.4725L67.2097 13.3591C66.8927 12.9837 66.5663 12.6168 66.2283 12.2611Z" fill="#494949"/>
<path d="M69.392 28.1294C68.5798 28.1294 67.9218 28.7876 67.9218 29.5996C67.9218 30.4116 68.5798 31.0698 69.392 31.0698H72.7243C72.7611 31.0698 72.7972 31.0671 72.8333 31.0643C72.8897 30.3875 72.9202 29.7031 72.9202 29.0115C72.9202 28.72 72.9134 28.4302 72.9031 28.1414C72.8443 28.1343 72.785 28.1294 72.7243 28.1294H69.392Z" fill="#494949"/>
<path d="M29.1093 29.2075C29.1093 28.3955 28.4511 27.7373 27.6391 27.7373H24.3399C24.318 28.1593 24.3068 28.5841 24.3068 29.0115C24.3068 29.0763 24.3068 29.1429 24.3087 29.2075C24.3127 29.7012 24.333 30.1912 24.3657 30.6777H27.6391C28.4511 30.6777 29.1093 30.0195 29.1093 29.2075Z" fill="#494949"/>
<path d="M30.457 12.8535L32.7998 15.1963C33.0867 15.4832 33.4631 15.627 33.8393 15.627C34.2155 15.627 34.5918 15.4834 34.8788 15.1963C35.4528 14.6222 35.4528 13.6912 34.8788 13.1173L32.5408 10.7793C31.8053 11.4282 31.1093 12.1209 30.457 12.8535Z" fill="#494949"/>
<path d="M82.7202 53.2204C82.4814 53.2204 82.239 53.1619 82.0146 53.0391L75.9379 49.7068C75.226 49.3163 74.9654 48.4229 75.3557 47.7106C75.7459 46.9988 76.6396 46.7379 77.3519 47.1284L83.4286 50.4607C84.1405 50.8511 84.401 51.7446 84.0108 52.4569C83.7432 52.9445 83.2398 53.2204 82.7202 53.2204Z" fill="#494949"/>
<path d="M15.8788 53.6122C15.4451 53.6122 15.0154 53.4211 14.7252 53.0544C14.2212 52.4177 14.3289 51.4933 14.9654 50.9891L19.6699 47.2647C20.3065 46.7605 21.2311 46.8682 21.7353 47.5047C22.2392 48.1414 22.1316 49.0658 21.495 49.57L16.7905 53.2945C16.5205 53.5085 16.1984 53.6122 15.8788 53.6122Z" fill="#494949"/>
</svg>
