<svg width="82" height="73" viewBox="0 0 82 73" fill="none" xmlns="http://www.w3.org/2000/svg">
<path d="M81.7539 71.5868L75.3296 36.1926C75.2656 35.8393 75.0464 35.5333 74.7324 35.3587L58.5627 26.3653C58.3529 26.2484 58.1176 26.2019 57.8865 26.2198L60.8283 64.1689L60.7297 64.213L80.0812 72.8946C80.2387 72.965 80.4061 72.9998 80.5727 72.9998C80.8364 72.9998 81.0976 72.9131 81.3125 72.7449C81.6635 72.4709 81.8333 72.0249 81.7539 71.5868Z" fill="#D7CFCF"/>
<path d="M40.8866 34.9628L24.3491 26.3493C24.1509 26.246 23.9311 26.2038 23.7147 26.2184C23.772 26.2148 23.8297 26.2152 23.8869 26.2196L20.9451 64.1688L40.3952 72.8946C40.5522 72.9649 40.7197 72.9998 40.8866 72.9998V34.9628V34.9628Z" fill="#D7CFCF"/>
<path d="M23.8867 26.2198C23.6556 26.2019 23.4204 26.2484 23.2105 26.3651L7.04063 35.3586C6.72663 35.5331 6.5075 35.839 6.44346 36.1924L0.0193058 71.5867C-0.0602315 72.0246 0.109704 72.4705 0.460594 72.7449C0.675728 72.9131 0.936859 72.9998 1.20039 72.9998C1.36697 72.9998 1.53451 72.9652 1.69182 72.8946L20.9379 64.2603L23.8867 26.2198Z" fill="#EEEEEE"/>
<path d="M57.8863 26.219C57.7273 26.2313 57.5699 26.2736 57.4241 26.3496L40.8866 34.963V73C40.8866 73 40.8866 73 40.8868 73C41.0537 73 41.2214 72.9652 41.3782 72.8947L60.8282 64.169L57.8863 26.219Z" fill="#EEEEEE"/>
<path d="M4.49655 46.9188L3.19153 54.1089L22.5159 43.9023L22.9645 38.1144L23.0389 37.1545L4.49655 46.9188Z" fill="#737373"/>
<path d="M22.6898 41.658L22.5159 43.9023L3.19153 54.1089L0.0193058 71.5868C-0.0602315 72.0247 0.109704 72.4707 0.460594 72.745C0.675728 72.9132 0.936859 72.9999 1.20039 72.9999C1.36697 72.9999 1.53451 72.9653 1.69182 72.8947L20.9379 64.2604L22.6898 41.658Z" fill="#C4C4C4"/>
<path d="M40.8914 39.7072L23.0389 37.1545L22.5159 43.9023L40.8866 71.8008V61.6562L29.9243 44.3947L40.8914 45.7064V39.7072Z" fill="#494949"/>
<path d="M73.4595 34.6507L65.6918 30.3303L58.3383 32.0485L58.4303 33.2361L58.7935 37.9212L73.4595 34.6507Z" fill="#494949"/>
<path d="M59.4456 46.3346L58.7493 37.3509L58.3383 32.0486L40.8914 39.7072V45.7063L52.2879 40.7504L59.4456 46.3346Z" fill="#737373"/>
<path d="M81.7539 71.5866L80.1403 62.696L58.7935 37.9211L59.4458 46.3345L81.3377 72.7225C81.6705 72.4467 81.8314 72.0136 81.7539 71.5866Z" fill="#494949"/>
<path d="M40.9634 0C31.7059 0 24.1743 7.52537 24.1743 16.7753C24.1743 22.4972 26.8909 28.6404 32.2488 35.0341C36.184 39.7301 40.0657 42.7505 40.2291 42.8768C40.4453 43.044 40.7044 43.1276 40.9636 43.1276C41.2226 43.1276 41.4818 43.044 41.6981 42.8768C41.8613 42.7505 45.7432 39.7301 49.6783 35.0341C55.0362 28.6404 57.7528 22.4974 57.7528 16.7753C57.7525 7.52537 50.2209 0 40.9634 0ZM47.1811 16.7752C47.1811 20.2061 44.3973 22.9877 40.9634 22.9877C37.5296 22.9877 34.7458 20.2063 34.7458 16.7752C34.7458 13.3441 37.5296 10.5626 40.9634 10.5626C44.3973 10.5626 47.1811 13.3442 47.1811 16.7752Z" fill="#737373"/>
<path d="M40.9634 0C40.2297 0 39.507 0.0475945 38.7979 0.13927C47.0364 1.20408 53.4216 8.25846 53.4216 16.7753C53.4216 22.4972 50.705 28.6404 45.3471 35.0341C42.8164 38.0539 40.3097 40.3792 38.798 41.6892C39.6372 42.4162 40.1709 42.8318 40.2291 42.8768C40.4453 43.044 40.7044 43.1276 40.9636 43.1276C41.2227 43.1276 41.4819 43.044 41.6981 42.8768C41.8613 42.7505 45.7432 39.7301 49.6784 35.0341C55.0363 28.6404 57.7528 22.4974 57.7528 16.7753C57.7525 7.52537 50.2209 0 40.9634 0Z" fill="#494949"/>
<path d="M41.3782 72.8946L48.6108 69.6498L40.8866 61.656V72.9998C40.8866 72.9998 40.8866 72.9998 40.8868 72.9998C41.0537 72.9998 41.2212 72.9652 41.3782 72.8946Z" fill="#737373"/>
<path d="M75.3294 36.1925C75.2654 35.8392 75.0463 35.5332 74.7323 35.3586L73.4593 34.6506L58.7934 37.9211L80.14 62.696L75.3294 36.1925Z" fill="#929292"/>
<path d="M40.8864 72.9998C40.8866 72.9998 40.8866 72.9998 40.8864 72.9998V71.8007L22.5159 43.9021L20.9448 64.1689L40.3948 72.8947C40.5518 72.9651 40.7194 72.9998 40.8864 72.9998Z" fill="#929292"/>
</svg>
