<svg width="952" height="850" viewBox="0 0 952 850" fill="none" xmlns="http://www.w3.org/2000/svg">
<path d="M273.436 199.5H667.446V682.5H273.436V199.5Z" fill="white"/>
<g clip-path="url(#clip0)">
<path d="M626.94 225.941C624.899 223.98 622.442 223 619.569 223H589.433C586.559 223 584.102 223.98 582.061 225.941C580.021 227.901 579.001 230.262 579.001 233.023V261.977C579.001 264.738 580.021 267.098 582.061 269.059C584.102 271.02 586.559 272 589.433 272H619.569C622.442 272 624.898 271.02 626.94 269.059C628.98 267.098 630.001 264.738 630.001 261.977V233.023C630 230.262 628.98 227.901 626.94 225.941ZM625.364 261.977C625.364 263.508 624.797 264.819 623.662 265.91C622.527 267 621.163 267.545 619.568 267.545H589.433C587.839 267.545 586.474 267 585.339 265.91C584.204 264.819 583.637 263.508 583.637 261.977V233.023C583.637 231.492 584.204 230.181 585.339 229.09C586.474 228 587.839 227.455 589.433 227.455H619.569C621.163 227.455 622.527 228 623.662 229.09C624.797 230.181 625.364 231.492 625.364 233.023V261.977H625.364Z" fill="#4A6971"/>
<path d="M603.201 261.551C601.478 263.365 598.683 263.365 596.961 261.551L587.292 251.373C585.569 249.561 585.569 246.618 587.292 244.805C589.014 242.992 591.81 242.992 593.532 244.805L599.293 250.868C599.728 251.325 600.434 251.325 600.87 250.868L616.468 234.449C618.19 232.635 620.985 232.635 622.708 234.449C623.535 235.32 624 236.502 624 237.733C624 238.965 623.535 240.146 622.708 241.017L603.201 261.551Z" fill="#4A6971"/>
</g>
<g clip-path="url(#clip1)">
<path d="M626.94 335.941C624.899 333.98 622.442 333 619.569 333H589.433C586.559 333 584.102 333.98 582.061 335.941C580.021 337.901 579.001 340.262 579.001 343.023V371.977C579.001 374.738 580.021 377.098 582.061 379.059C584.102 381.02 586.559 382 589.433 382H619.569C622.442 382 624.898 381.02 626.94 379.059C628.98 377.098 630.001 374.738 630.001 371.977V343.023C630 340.262 628.98 337.901 626.94 335.941ZM625.364 371.977C625.364 373.508 624.797 374.819 623.662 375.91C622.527 377 621.163 377.545 619.568 377.545H589.433C587.839 377.545 586.474 377 585.339 375.91C584.204 374.819 583.637 373.508 583.637 371.977V343.023C583.637 341.492 584.204 340.181 585.339 339.09C586.474 338 587.839 337.455 589.433 337.455H619.569C621.163 337.455 622.527 338 623.662 339.09C624.797 340.181 625.364 341.492 625.364 343.023V371.977H625.364Z" fill="#4A6971"/>
<path d="M603.201 371.551C601.478 373.365 598.683 373.365 596.961 371.551L587.292 361.373C585.569 359.561 585.569 356.618 587.292 354.805C589.014 352.992 591.81 352.992 593.532 354.805L599.293 360.868C599.728 361.325 600.434 361.325 600.87 360.868L616.468 344.449C618.19 342.635 620.985 342.635 622.708 344.449C623.535 345.32 624 346.502 624 347.733C624 348.965 623.535 350.146 622.708 351.017L603.201 371.551Z" fill="#4A6971"/>
</g>
<g clip-path="url(#clip2)">
<path d="M567.94 285.941C565.899 283.98 563.442 283 560.569 283H530.433C527.559 283 525.102 283.98 523.061 285.941C521.021 287.901 520.001 290.262 520.001 293.023V321.977C520.001 324.738 521.021 327.098 523.061 329.059C525.102 331.02 527.559 332 530.433 332H560.569C563.442 332 565.898 331.02 567.94 329.059C569.98 327.098 571.001 324.738 571.001 321.977V293.023C571 290.262 569.98 287.901 567.94 285.941ZM566.364 321.977C566.364 323.508 565.797 324.819 564.662 325.91C563.527 327 562.163 327.545 560.568 327.545H530.433C528.839 327.545 527.474 327 526.339 325.91C525.204 324.819 524.637 323.508 524.637 321.977V293.023C524.637 291.492 525.204 290.181 526.339 289.09C527.474 288 528.839 287.455 530.433 287.455H560.569C562.163 287.455 563.527 288 564.662 289.09C565.797 290.181 566.364 291.492 566.364 293.023V321.977H566.364Z" fill="#4A6971"/>
<path d="M544.201 321.551C542.478 323.365 539.683 323.365 537.961 321.551L528.292 311.373C526.569 309.561 526.569 306.618 528.292 304.805C530.014 302.992 532.81 302.992 534.532 304.805L540.293 310.868C540.728 311.325 541.434 311.325 541.87 310.868L557.468 294.449C559.19 292.635 561.985 292.635 563.708 294.449C564.535 295.32 565 296.502 565 297.733C565 298.965 564.535 300.146 563.708 301.017L544.201 321.551Z" fill="#4A6971"/>
</g>
<path d="M546.851 570.15H398.188V572.708V577.433V582.158V584.85H546.851V582.683C546.851 582.683 546.851 579.382 546.851 577.433C546.851 575.483 546.851 572.708 546.851 572.708V570.15Z" fill="#4A6971"/>
<path d="M628.98 570.15H579.079V572.708V577.433V582.158V584.85H628.98V582.683C628.98 582.683 628.98 579.382 628.98 577.433C628.98 575.483 628.98 572.708 628.98 572.708V570.15Z" fill="#4A6971"/>
<path d="M358.683 570.15H308.782V572.708V577.433V582.158V584.85H358.683V582.683C358.683 582.683 358.683 579.382 358.683 577.433C358.683 575.483 358.683 572.708 358.683 572.708V570.15Z" fill="#4A6971"/>
<path d="M358.683 610.05H308.782V612.608V617.333V622.058V624.75H358.683V622.583C358.683 622.583 358.683 619.282 358.683 617.333C358.683 615.383 358.683 612.608 358.683 612.608V610.05Z" fill="#4A6971"/>
<path d="M628.98 530.25H480.317V532.808V537.533V542.258V544.95H628.98V542.783C628.98 542.783 628.98 539.482 628.98 537.533C628.98 535.583 628.98 532.808 628.98 532.808V530.25Z" fill="#4A6971"/>
<path d="M457.446 530.25H308.782V532.808V537.533V542.258V544.95H457.446V542.783C457.446 542.783 457.446 539.482 457.446 537.533C457.446 535.583 457.446 532.808 457.446 532.808V530.25Z" fill="#4A6971"/>
<path d="M628.98 610.05H365.96V612.608V617.333V622.058V624.75H628.98V622.583C628.98 622.583 628.98 619.282 628.98 617.333C628.98 615.383 628.98 612.608 628.98 612.608V610.05Z" fill="#4A6971"/>
<path d="M358.683 610.05H308.782V612.608V617.333V622.058V624.75H358.683V622.583C358.683 622.583 358.683 619.282 358.683 617.333C358.683 615.383 358.683 612.608 358.683 612.608V610.05Z" fill="#4A6971"/>
<path d="M628.98 490.35H308.782V492.908V497.633V502.358V505.05H628.98V502.883C628.98 502.883 628.98 499.582 628.98 497.633C628.98 495.683 628.98 492.908 628.98 492.908V490.35Z" fill="#4A6971"/>
<path d="M628.98 451.5H579.079V454.058V458.783V463.508V466.2H628.98V464.033C628.98 464.033 628.98 460.732 628.98 458.783C628.98 456.833 628.98 454.058 628.98 454.058V451.5Z" fill="#4A6971"/>
<path d="M571.802 451.5H308.782V454.058V458.783V463.508V466.2H571.802V464.033C571.802 464.033 571.802 460.732 571.802 458.783C571.802 456.833 571.802 454.058 571.802 454.058V451.5Z" fill="#4A6971"/>
<path d="M674.026 189H357.644V191.625V196.875V203.7H364.472L667.446 204.75V378H668.186C668.186 378 671.774 378 673.894 378C676.014 378 679.032 378 679.032 378H682V197.067C682 194.931 681.161 192.882 679.666 191.369C678.171 189.857 676.143 189.005 674.026 189Z" fill="#4A6971"/>
<path d="M674.723 457.8H671.084H669.525H669.005H667.446L667.384 678.114H276.582V203.886L357.644 203.7V201.6V196.35V191.625V189H269.291C267.357 189 265.503 189.784 264.136 191.18C262.768 192.576 262 194.469 262 196.443V685.557C262 687.531 262.768 689.424 264.136 690.82C265.503 692.216 267.357 693 269.291 693H674.709C676.643 693 678.497 692.216 679.865 690.82C681.232 689.424 682 687.531 682 685.557V457.8H679.401C679.401 457.8 675.682 457.798 674.723 457.8Z" fill="#4A6971"/>
<rect x="667.446" y="378" width="14.5545" height="79.8" fill="#4A6971"/>
<path d="M409.153 409.039H333.659C326.437 409.039 320.582 403.058 320.582 395.681V394.962C320.582 387.585 326.437 381.604 333.659 381.604H409.153C416.375 381.604 422.23 387.585 422.23 394.962V395.681C422.23 403.058 416.375 409.039 409.153 409.039V409.039Z" fill="#4CAF50"/>
<path d="M356.515 409.068C356.515 414.149 353.318 418.818 348.642 420.556C343.954 422.298 338.574 420.805 335.376 416.906C332.142 412.965 331.699 407.19 334.292 402.782C336.851 398.432 341.911 396.115 346.793 397.06C352.367 398.14 356.515 403.277 356.515 409.068V409.068Z" fill="#D1DDDE"/>
<path d="M410.861 409.068C410.861 414.149 407.664 418.818 402.988 420.556C398.3 422.298 392.92 420.805 389.722 416.906C386.489 412.965 386.046 407.19 388.639 402.782C391.197 398.432 396.258 396.115 401.14 397.06C406.714 398.14 410.861 403.277 410.861 409.068V409.068Z" fill="#D1DDDE"/>
<path d="M342.073 381.633V367.001C342.073 365.164 343.531 363.675 345.329 363.675H366.958C378.115 363.675 388.767 368.429 396.347 376.794L400.739 381.639L342.073 381.633Z" fill="#B0E7F8"/>
<path d="M441.671 245.112C433.082 237.913 420.467 237.913 411.878 245.112C403.792 251.887 400.32 264.52 403.335 274.683C406.794 286.349 417.263 295.71 426.141 303.181C426.351 303.358 426.563 303.534 426.775 303.711C426.986 303.534 427.198 303.358 427.408 303.181C436.156 295.814 446.051 287.423 449.826 276.086C453.296 265.667 450.092 252.169 441.671 245.112Z" fill="#1A237E"/>
<path d="M436.975 264.686C436.975 270.443 432.409 275.109 426.775 275.109C421.14 275.109 416.574 270.443 416.574 264.686C416.574 258.931 421.14 254.265 426.775 254.265C432.409 254.265 436.975 258.931 436.975 264.686V264.686Z" fill="#FAFAFA"/>
<path d="M396.783 351.418H417.157C421.822 351.418 421.829 343.995 417.157 343.995H396.783C386.959 343.995 378.965 335.829 378.965 325.792C378.965 315.755 386.958 307.589 396.783 307.589H426.732C427.943 307.589 429.013 306.982 429.674 306.05C429.694 306.033 429.713 306.017 429.733 306.001C434.881 301.675 440.053 297.325 444.444 292.203C448.835 287.081 452.449 281.106 453.97 274.476C455.54 267.641 454.66 260.231 452.004 253.795C449.815 248.492 446.425 243.611 441.668 240.42C436.378 236.872 429.795 235.386 423.53 236.232C415.818 237.275 408.662 241.817 404.163 248.301C399.665 254.786 397.839 263.099 398.989 270.959C400.072 278.363 403.66 285.208 408.288 291.013C410.93 294.329 413.908 297.334 417.046 300.166H396.784C382.952 300.166 371.7 311.662 371.7 325.792C371.7 339.923 382.952 351.418 396.783 351.418V351.418ZM406.811 273.606C404.178 264.727 407.346 253.71 414.182 247.981C417.83 244.924 422.303 243.396 426.775 243.396C431.233 243.396 435.692 244.916 439.335 247.954L439.4 248.009C446.382 253.889 449.451 265.687 446.387 274.891C443.147 284.618 434.683 292.212 426.779 298.898C418.416 291.76 409.717 283.403 406.811 273.606V273.606Z" fill="black"/>
<path d="M459.457 343.995H446.1C441.435 343.995 441.428 351.418 446.1 351.418H459.457C470.311 351.418 479.141 360.441 479.141 371.529C479.141 382.616 470.311 391.639 459.457 391.639H425.469C423.799 383.806 416.962 377.921 408.803 377.921H402.32L399.013 374.272C390.772 365.179 379.088 359.963 366.958 359.963H345.329C341.531 359.963 338.44 363.121 338.44 367.002V377.921H334.009C324.602 377.921 316.949 385.74 316.949 395.35C316.949 403.167 322.083 409.953 329.24 412.084C330.625 419.431 336.962 425 344.551 425C351.901 425 358.073 419.78 359.716 412.779H383.734C385.377 419.78 391.551 425 398.899 425C406.562 425 412.945 419.323 414.247 411.871C419.953 409.917 424.206 405.02 425.472 399.062H459.457C474.316 399.062 486.407 386.71 486.407 371.529C486.407 356.347 474.316 343.995 459.457 343.995V343.995ZM345.706 367.387H366.958C376.433 367.387 385.582 371.205 392.35 377.921H345.706V367.387ZM344.553 417.577C339.96 417.577 336.223 413.76 336.223 409.068C336.223 404.374 339.96 400.557 344.553 400.557C349.144 400.557 352.882 404.374 352.882 409.068C352.882 413.76 349.144 417.577 344.553 417.577ZM398.899 417.577C394.306 417.577 390.57 413.76 390.57 409.068C390.57 404.374 394.306 400.557 398.899 400.557C403.492 400.557 407.228 404.374 407.228 409.068C407.228 413.76 403.492 417.577 398.899 417.577ZM413.689 404.024C411.619 397.704 405.774 393.134 398.899 393.134C391.551 393.134 385.377 398.355 383.736 405.356H359.716C358.074 398.355 351.901 393.134 344.553 393.134C337.572 393.134 331.648 397.845 329.665 404.318C326.417 402.667 324.217 399.229 324.217 395.349C324.217 389.832 328.609 385.343 334.011 385.343H342.074L400.739 385.35C400.769 385.35 400.797 385.345 400.827 385.343H408.804C414.204 385.343 418.598 389.832 418.598 395.349C418.597 399.017 416.653 402.282 413.689 404.024Z" fill="black"/>
<path d="M440.608 264.686C440.608 256.894 434.403 250.554 426.775 250.554C419.147 250.554 412.941 256.894 412.941 264.686C412.941 272.48 419.147 278.82 426.775 278.82C434.403 278.82 440.608 272.48 440.608 264.686ZM420.207 264.686C420.207 260.986 423.153 257.977 426.775 257.977C430.396 257.977 433.342 260.986 433.342 264.686C433.342 268.386 430.396 271.397 426.775 271.397C423.153 271.397 420.207 268.386 420.207 264.686V264.686Z" fill="black"/>
<path d="M429.271 345.081C427.874 346.508 427.876 348.902 429.271 350.33C430.667 351.757 433.013 351.757 434.409 350.33C435.765 348.942 435.809 346.645 434.516 345.201C433.143 343.666 430.714 343.609 429.271 345.081C428.595 345.772 429.948 344.39 429.271 345.081V345.081Z" fill="black"/>
<path d="M398.899 405.355C396.926 405.355 395.266 407.05 395.266 409.066C395.266 411.083 396.926 412.778 398.899 412.778C400.817 412.778 402.44 411.181 402.525 409.229C402.615 407.153 400.937 405.355 398.899 405.355Z" fill="black"/>
<path d="M344.551 405.355C342.578 405.355 340.918 407.05 340.918 409.066C340.918 411.083 342.578 412.778 344.551 412.778C346.47 412.778 348.093 411.181 348.177 409.229C348.268 407.153 346.589 405.355 344.551 405.355Z" fill="black"/>
<g clip-path="url(#clip3)">
<path d="M568.94 391.941C566.899 389.98 564.442 389 561.569 389H531.433C528.559 389 526.102 389.98 524.061 391.941C522.021 393.901 521.001 396.262 521.001 399.023V427.977C521.001 430.738 522.021 433.098 524.061 435.059C526.102 437.02 528.559 438 531.433 438H561.569C564.442 438 566.898 437.02 568.94 435.059C570.98 433.098 572.001 430.738 572.001 427.977V399.023C572 396.262 570.98 393.901 568.94 391.941ZM567.364 427.977C567.364 429.508 566.797 430.819 565.662 431.91C564.527 433 563.163 433.545 561.568 433.545H531.433C529.839 433.545 528.474 433 527.339 431.91C526.204 430.819 525.637 429.508 525.637 427.977V399.023C525.637 397.492 526.204 396.181 527.339 395.09C528.474 394 529.839 393.455 531.433 393.455H561.569C563.163 393.455 564.527 394 565.662 395.09C566.797 396.181 567.364 397.492 567.364 399.023V427.977H567.364Z" fill="#4A6971"/>
<path d="M545.201 427.551C543.478 429.365 540.683 429.365 538.961 427.551L529.292 417.373C527.569 415.561 527.569 412.618 529.292 410.805C531.014 408.992 533.81 408.992 535.532 410.805L541.293 416.868C541.728 417.325 542.434 417.325 542.87 416.868L558.468 400.449C560.19 398.635 562.985 398.635 564.708 400.449C565.535 401.32 566 402.502 566 403.733C566 404.965 565.535 406.146 564.708 407.017L545.201 427.551Z" fill="#4A6971"/>
</g>
<g style="mix-blend-mode:overlay" filter="url(#filter0_d)">
<path d="M58.9025 515.241C-112.873 291.874 164.508 192.125 262.092 106.45C359.677 20.775 330.936 -31.2419 570.218 20.775C809.501 72.7918 638 91 816.5 174.5C995 258 947.857 337.772 921.122 436.298C894.386 534.824 822.869 493.21 754.025 705.561C685.181 917.912 555.514 832.238 280.807 779.609C55.2458 736.396 230.678 738.607 58.9025 515.241Z" fill="#4A6971"/>
<path d="M58.9025 515.241C-112.873 291.874 164.508 192.125 262.092 106.45C359.677 20.775 330.936 -31.2419 570.218 20.775C809.501 72.7918 638 91 816.5 174.5C995 258 947.857 337.772 921.122 436.298C894.386 534.824 822.869 493.21 754.025 705.561C685.181 917.912 555.514 832.238 280.807 779.609C55.2458 736.396 230.678 738.607 58.9025 515.241Z" stroke="#4A6971"/>
</g>
<defs>
<filter id="filter0_d" x="0" y="0" width="951.381" height="850" filterUnits="userSpaceOnUse" color-interpolation-filters="sRGB">
<feFlood flood-opacity="0" result="BackgroundImageFix"/>
<feColorMatrix in="SourceAlpha" type="matrix" values="0 0 0 0 0 0 0 0 0 0 0 0 0 0 0 0 0 0 127 0"/>
<feOffset dy="4"/>
<feGaussianBlur stdDeviation="2"/>
<feColorMatrix type="matrix" values="0 0 0 0 0 0 0 0 0 0 0 0 0 0 0 0 0 0 0.25 0"/>
<feBlend mode="normal" in2="BackgroundImageFix" result="effect1_dropShadow"/>
<feBlend mode="normal" in="SourceGraphic" in2="effect1_dropShadow" result="shape"/>
</filter>
<clipPath id="clip0">
<rect width="51" height="49" fill="white" transform="translate(579 223)"/>
</clipPath>
<clipPath id="clip1">
<rect width="51" height="49" fill="white" transform="translate(579 333)"/>
</clipPath>
<clipPath id="clip2">
<rect width="51" height="49" fill="white" transform="translate(520 283)"/>
</clipPath>
<clipPath id="clip3">
<rect width="51" height="49" fill="white" transform="translate(521 389)"/>
</clipPath>
</defs>
</svg>
