<svg width="389" height="390" viewBox="0 0 389 390" fill="none" xmlns="http://www.w3.org/2000/svg">
<path d="M295.5 360V386H6.5V31H35.5V360H295.5Z" fill="#636363"/>
<path d="M221.5 7H35V356H319V100H225L221.5 7Z" fill="#AFAFAF"/>
<path d="M223.5 99.5V9.5L318 99.5H223.5Z" fill="#717171"/>
<path d="M292.5 314V243L337 255L292.5 314Z" fill="#CCCCCC"/>
<path d="M336.787 102.903C340.808 90.4953 354.127 83.697 366.534 87.7185V87.7185C378.942 91.7399 385.74 105.058 381.719 117.466L337.932 252.563L293 238L336.787 102.903Z" fill="#606060"/>
<path d="M80.5 96V40.5H164V96H80.5Z" fill="#DFDFDF"/>
<path d="M372.197 83.7595L362.76 80.81C360.4 80.2201 358.04 79.6302 355.092 79.6302C344.474 79.6302 335.037 86.7083 331.497 96.7358L326.189 112.662V100.864V100.275C326.189 98.5055 325.009 96.7358 323.829 95.556L227.093 1.7697C225.914 0.5899 224.144 0 222.964 0H33.6212C30.0818 0 27.723 2.3596 27.723 5.89822V24.1836H5.89822C2.35882 24.1836 0 26.5432 0 30.0818V383.404C0 386.944 2.3596 389.303 5.89822 389.303H292.567C296.106 389.303 298.465 386.943 298.465 383.404V365.119H320.29C323.829 365.119 326.188 362.76 326.188 359.221V279.591L342.704 257.176L343.294 255.406L387.533 114.431C392.252 101.455 385.174 87.8881 372.197 83.7595ZM228.862 20.055L306.133 94.377H228.862V20.055ZM286.669 377.506H11.7964V35.9808H27.7222V359.221C27.7222 362.76 30.0818 365.119 33.6204 365.119H286.668V377.506H286.669ZM314.982 353.323H314.392H39.5194V11.7972H217.065V100.275C217.065 103.815 219.425 106.173 222.963 106.173H314.981V150.413L287.258 237.711V239.481L288.438 314.392C288.438 316.752 290.207 319.112 292.567 319.701C294.927 320.291 297.875 319.701 299.055 317.341L314.981 296.106V353.323H314.982ZM299.645 296.106L298.465 247.149L327.958 256.586L299.645 296.106ZM376.916 110.893L334.447 245.97L300.235 234.762L342.705 100.275C345.064 93.7871 352.142 89.6578 358.63 92.0174L368.068 94.9669C375.147 96.7358 379.275 104.404 376.916 110.893Z" fill="#4B4B4B"/>
<path d="M79.6297 106.173H164.569C168.108 106.173 170.467 103.814 170.467 100.275V40.1101C170.467 36.5707 168.108 34.2119 164.569 34.2119H79.6297C76.0903 34.2119 73.7314 36.5715 73.7314 40.1101V100.275C73.7314 103.225 76.6809 106.173 79.6297 106.173ZM85.5287 46.0083H158.671V94.3762H85.5287V46.0083Z" fill="#4B4B4B"/>
<path d="M67.8333 161.62H247.149C250.688 161.62 253.047 159.261 253.047 155.722C253.047 152.183 250.687 149.824 247.149 149.824H67.8333C64.2939 149.824 61.9351 152.183 61.9351 155.722C61.9343 159.261 64.2939 161.62 67.8333 161.62Z" fill="#4B4B4B"/>
<path d="M67.8333 204.68H247.149C250.688 204.68 253.047 202.32 253.047 198.782C253.047 195.243 250.687 192.883 247.149 192.883H67.8333C64.2939 192.883 61.9351 195.243 61.9351 198.782C61.9351 202.32 64.2939 204.68 67.8333 204.68Z" fill="#4B4B4B"/>
<path d="M67.8333 247.739H247.149C250.688 247.739 253.047 245.379 253.047 241.84C253.047 238.302 250.687 235.942 247.149 235.942H67.8333C64.2939 235.942 61.9351 238.302 61.9351 241.84C61.9351 245.379 64.2939 247.739 67.8333 247.739Z" fill="#4B4B4B"/>
<path d="M252.457 284.9C252.457 281.361 250.098 279.002 246.559 279.002H67.8333C64.2939 279.002 61.9351 281.361 61.9351 284.9C61.9351 288.439 64.2947 290.798 67.8333 290.798H247.149C250.098 290.798 252.457 287.849 252.457 284.9Z" fill="#4B4B4B"/>
<path d="M271.922 322.061H182.854C179.314 322.061 176.956 324.42 176.956 327.959C176.956 331.497 179.315 333.857 182.854 333.857H271.332C274.871 333.857 277.23 331.497 277.23 327.959C277.23 324.42 274.871 322.061 271.922 322.061Z" fill="#4B4B4B"/>
</svg>
