<svg width="512" height="512" viewBox="0 0 512 512" fill="none" xmlns="http://www.w3.org/2000/svg">
<path d="M348 11L13 347L169 502L504 164L348 11Z" fill="#D9D9D9"/>
<path d="M164.104 511.969C162.04 511.969 160.07 511.147 158.611 509.704L2.26522 353.327C-0.760239 350.301 -0.760239 345.383 2.26522 342.357L342.419 2.21867C345.336 -0.698176 350.487 -0.698176 353.389 2.21867L509.719 158.58C512.745 161.606 512.745 166.524 509.719 169.55L169.581 509.704C168.122 511.147 166.152 511.969 164.104 511.969ZM18.7268 347.85L164.104 493.242L493.273 164.057L347.912 18.6647L18.7268 347.85Z" fill="#323232"/>
<path d="M328.052 111.818C326.066 111.818 324.081 111.057 322.56 109.552L284.284 71.2766C281.259 68.2512 281.259 63.3329 284.284 60.3074C287.31 57.282 292.228 57.282 295.253 60.3074L333.529 98.5833C336.555 101.609 336.555 106.527 333.529 109.552C332.024 111.057 330.038 111.818 328.052 111.818Z" fill="#323232"/>
<path d="M296.634 192.326C294.648 192.326 292.662 191.566 291.142 190.061L228.321 127.24C225.296 124.214 225.296 119.296 228.321 116.271C231.346 113.245 236.265 113.245 239.29 116.271L302.111 179.091C305.136 182.117 305.136 187.035 302.111 190.061C300.606 191.581 298.62 192.326 296.634 192.326Z" fill="#323232"/>
<path d="M216.095 223.791C214.109 223.791 212.123 223.03 210.603 221.525L172.327 183.249C169.301 180.224 169.301 175.306 172.327 172.28C175.352 169.255 180.271 169.255 183.296 172.28L221.572 210.556C224.597 213.582 224.597 218.5 221.572 221.525C220.067 223.03 218.081 223.791 216.095 223.791Z" fill="#323232"/>
<path d="M184.646 304.33C182.66 304.33 180.674 303.569 179.153 302.064L116.333 239.244C113.307 236.218 113.307 231.3 116.333 228.274C119.358 225.249 124.276 225.249 127.302 228.274L190.123 291.095C193.148 294.121 193.148 299.039 190.123 302.064C188.618 303.569 186.632 304.33 184.646 304.33Z" fill="#323232"/>
<path d="M104.122 335.748C102.136 335.748 100.15 334.988 98.6298 333.483L60.3539 295.207C57.3285 292.181 57.3285 287.263 60.3539 284.238C63.3794 281.212 68.2977 281.212 71.3231 284.238L109.599 322.513C112.624 325.539 112.624 330.457 109.599 333.483C108.094 334.988 106.108 335.748 104.122 335.748Z" fill="#323232"/>
</svg>
