<svg width="150" height="150" viewBox="0 0 150 150" fill="none" xmlns="http://www.w3.org/2000/svg">
<rect width="150" height="150" rx="40" fill="#141414"/>
<path d="M77.056 41.8C83.008 41.8 88.16 42.792 92.512 44.776C96.928 46.76 100.32 49.576 102.688 53.224C105.056 56.872 106.24 61.192 106.24 66.184C106.24 71.112 105.056 75.432 102.688 79.144C100.32 82.792 96.928 85.608 92.512 87.592C88.16 89.512 83.008 90.472 77.056 90.472H63.52V109H47.968V41.8H77.056ZM76.192 77.8C80.864 77.8 84.416 76.808 86.848 74.824C89.28 72.776 90.496 69.896 90.496 66.184C90.496 62.408 89.28 59.528 86.848 57.544C84.416 55.496 80.864 54.472 76.192 54.472H63.52V77.8H76.192Z" fill="white"/>
</svg>
