<svg width="316" height="337" viewBox="0 0 316 337" fill="none" xmlns="http://www.w3.org/2000/svg">
<path d="M286.381 104.014C280.925 104.014 276.508 99.5969 276.508 94.141V69.1113C276.508 63.6632 272.083 59.2383 266.635 59.2383C261.179 59.2383 256.762 54.8211 256.762 49.3652C256.762 43.9093 261.179 39.4922 266.635 39.4922C282.966 39.4922 296.254 52.7797 296.254 69.1113V94.141C296.254 99.5969 291.837 104.014 286.381 104.014Z" fill="#CCCCCC"/>
<path d="M266.635 296.85C250.303 296.85 237.016 283.562 237.016 267.23V227.738C237.016 211.407 223.728 198.119 207.396 198.119C201.941 198.119 197.523 193.702 197.523 188.246C197.523 182.79 201.941 178.373 207.396 178.373C234.614 178.373 256.762 200.521 256.762 227.738V267.23C256.762 272.679 261.187 277.104 266.635 277.104C272.083 277.104 276.508 272.679 276.508 267.23V148.096C276.508 142.64 280.925 138.223 286.381 138.223C291.837 138.223 296.254 142.64 296.254 148.096V267.23C296.254 283.562 282.966 296.85 266.635 296.85Z" fill="#444444"/>
<path d="M217.27 148.096V327.127H39.5547V148.096C39.5547 142.565 43.8973 138.223 49.4277 138.223H207.396C212.927 138.223 217.27 142.565 217.27 148.096Z" fill="#A8A8A8"/>
<path d="M217.27 148.096V327.127H128.412V138.223H207.396C212.927 138.223 217.27 142.565 217.27 148.096Z" fill="#636363"/>
<path d="M207.396 0H49.4277C33.0369 0 19.8086 13.2283 19.8086 29.6191V128.35C19.8086 144.738 33.0369 157.969 49.4277 157.969H207.396C223.787 157.969 237.016 144.738 237.016 128.35V29.6191C237.016 13.2283 223.787 0 207.396 0Z" fill="#777575"/>
<path d="M306.127 157.969H266.635C261.179 157.969 256.762 153.552 256.762 148.096V128.35C256.762 101.132 278.909 78.9844 306.127 78.9844C311.583 78.9844 316 83.4015 316 88.8574V148.096C316 153.552 311.583 157.969 306.127 157.969Z" fill="#777575"/>
<path d="M136.509 182.716C134.732 179.952 131.572 178.767 128.412 178.767C125.252 178.767 122.092 179.952 120.316 182.716C113.801 191.998 98.793 215.101 98.793 227.738C98.793 244.127 112.021 257.358 128.412 257.358C144.803 257.358 158.031 244.127 158.031 227.738C158.031 215.101 143.024 191.998 136.509 182.716Z" fill="#777575"/>
<path d="M256.762 327.127C256.762 332.655 252.419 337 246.889 337H9.93555C4.4051 337 0.0625 332.655 0.0625 327.127C0.0625 321.597 4.4051 317.254 9.93555 317.254H246.889C252.419 317.254 256.762 321.597 256.762 327.127Z" fill="#5A5A5A"/>
<path d="M177.777 286.977C177.777 292.504 173.435 296.85 167.904 296.85H88.9199C83.3895 296.85 79.0469 292.504 79.0469 286.977C79.0469 281.446 83.3895 277.104 88.9199 277.104H167.904C173.435 277.104 177.777 281.446 177.777 286.977Z" fill="#5A5A5A"/>
<path d="M237.016 29.6191V128.35C237.016 144.738 223.787 157.969 207.396 157.969H128.412V0H207.396C223.787 0 237.016 13.2283 237.016 29.6191Z" fill="#393838"/>
<path d="M128.412 257.358V178.767C131.572 178.767 134.732 179.952 136.509 182.716C143.024 191.998 158.031 215.101 158.031 227.738C158.031 244.127 144.803 257.358 128.412 257.358Z" fill="#444444"/>
<path d="M256.762 327.127C256.762 332.655 252.419 337 246.889 337H128.412V317.254H246.889C252.419 317.254 256.762 321.597 256.762 327.127Z" fill="#444444"/>
<path d="M177.777 286.977C177.777 292.504 173.435 296.85 167.904 296.85H128.412V277.104H167.904C173.435 277.104 177.777 281.446 177.777 286.977Z" fill="#444444"/>
<path d="M187.65 39.4922H69.1738C63.6434 39.4922 59.3008 43.8348 59.3008 49.3652V108.604C59.3008 114.131 63.6434 118.477 69.1738 118.477H187.65C193.181 118.477 197.523 114.131 197.523 108.604V49.3652C197.523 43.8348 193.181 39.4922 187.65 39.4922Z" fill="#CCCCCC"/>
<path d="M187.65 118.477H128.412V39.4922H187.65C193.181 39.4922 197.523 43.8348 197.523 49.3652V108.604C197.523 114.131 193.181 118.477 187.65 118.477Z" fill="#6A6666"/>
</svg>
