<svg xmlns="http://www.w3.org/2000/svg" version="1.0" width="981.000000" height="886.000000" preserveAspectRatio="xMidYMid meet" style=""><rect id="backgroundrect" width="100%" height="100%" x="0" y="0" fill="none" stroke="none"/>


<g class="currentLayer" style=""><title>Layer 1</title><g transform="translate(0,886) scale(0.10000000149011612,-0.10000000149011612) " fill="#6d6d6d" stroke="none" id="svg_1" class="selected" fill-opacity="1">
<path d="M2655.7692251205444,8833.615386009216 c-258,-17 -609,-112 -910,-246 c-204,-92 -455,-245 -635,-389 c-186,-149 -421,-397 -557,-590 c-171,-240 -344,-595 -423,-869 c-60,-205 -107,-482 -98,-575 c9,-91 67,-145 156,-145 c116,1 158,57 192,256 c46,270 98,458 186,666 c223,534 683,1021 1212,1287 c200,100 378,164 594,212 c188,41 330,56 618,63 c193,5 282,10 298,19 c12,7 36,31 52,54 c42,57 41,117 0,180 c-48,72 -61,75 -335,80 c-132,2 -289,0 -350,-3 z" id="svg_2" fill="#6d6d6d" fill-opacity="1"/>
<path d="M2730.7692251205444,8154.615386009216 c-129,-12 -217,-27 -330,-56 c-828,-207 -1487,-888 -1656,-1711 c-34,-167 -38,-303 -9,-353 c49,-84 193,-95 261,-19 c26,29 39,70 54,164 c30,183 105,423 189,597 c161,337 492,668 836,837 c298,147 583,211 938,211 c153,0 176,2 204,20 c51,31 68,65 68,140 c0,86 -16,114 -81,146 c-50,24 -65,26 -216,29 c-90,2 -206,0 -258,-5 z" id="svg_3" fill="#6d6d6d" fill-opacity="1"/>
<path d="M2735.7692251205444,7473.615386009216 c-233,-25 -467,-114 -685,-260 c-121,-81 -298,-253 -384,-372 c-123,-170 -221,-399 -266,-617 c-36,-174 -23,-248 51,-297 c55,-36 113,-40 169,-11 c59,30 82,77 115,234 c30,146 51,209 104,315 c138,275 370,485 666,602 c127,50 224,67 425,76 c199,8 223,16 268,83 c52,79 23,190 -60,235 c-27,14 -61,18 -178,19 c-80,1 -181,-2 -225,-7 z" id="svg_4" fill="#6d6d6d" fill-opacity="1"/>
<path d="M2771.7692251205444,6784.615386009216 c-311,-65 -558,-280 -659,-575 c-77,-228 -33,-359 122,-360 c103,0 142,42 185,199 c33,119 68,183 141,256 c106,107 207,146 407,158 c117,8 124,9 154,38 c92,86 75,208 -36,264 c-43,21 -65,25 -160,27 c-60,1 -130,-2 -154,-7 z" id="svg_5" fill="#6d6d6d" fill-opacity="1"/>
<path d="M7235.769225120544,6375.615386009216 c-718,-184 -3057,-821 -3874,-1057 c-161,-46 -303,-91 -315,-99 c-53,-38 -139,-134 -166,-187 c-44,-90 -54,-152 -47,-320 c4,-82 5,-148 4,-148 c-1,0 -119,9 -262,20 c-366,28 -592,36 -636,21 c-20,-6 -49,-25 -65,-42 c-27,-28 -29,-36 -28,-97 c2,-85 40,-251 165,-732 c180,-693 318,-1187 369,-1323 c42,-111 114,-128 249,-59 c42,21 205,122 362,224 c156,102 294,190 306,197 c27,14 39,-2 79,-99 c56,-138 154,-247 279,-310 c59,-30 81,-36 151,-38 c132,-6 274,26 1129,253 c409,108 961,249 1027,260 c33,6 38,4 52,-23 c8,-16 131,-288 272,-603 c301,-675 510,-1123 539,-1156 c15,-18 37,-26 85,-33 c36,-5 399,-10 807,-10 l741,0 l6,-77 c20,-248 45,-342 119,-445 c162,-225 464,-398 825,-473 c131,-28 275,-35 313,-15 c13,7 43,28 67,47 l42,34 l0,1433 l0,1433 l-44,41 c-56,52 -108,66 -209,58 c-98,-8 -275,-54 -392,-101 c-357,-144 -623,-409 -696,-693 c-10,-41 -19,-98 -19,-126 c0,-28 -3,-61 -6,-74 l-6,-22 l-282,0 c-154,0 -398,3 -541,7 l-260,6 l-140,331 c-185,441 -285,687 -285,707 c0,33 83,60 700,224 c594,158 703,190 749,219 c133,85 235,267 235,421 c-1,87 -59,337 -229,990 c-338,1289 -350,1322 -530,1430 c-89,53 -170,75 -279,75 c-79,0 -125,-9 -361,-69 zm465,-300 c35,-30 46,-52 76,-141 c100,-302 513,-1885 517,-1984 c2,-45 -1,-51 -36,-81 c-77,-66 -143,-86 -1977,-575 c-1820,-485 -2385,-630 -2463,-630 c-49,0 -84,44 -116,143 c-76,239 -328,1155 -458,1667 c-75,297 -83,339 -74,371 c28,94 102,116 2861,854 c547,146 1126,300 1285,341 c160,42 295,77 300,78 c20,6 46,-7 85,-43 zm-5085,-1831 c154,-11 292,-20 307,-20 c31,0 20,31 127,-360 c106,-388 181,-682 175,-692 c-16,-26 -427,-314 -547,-383 c-37,-21 -51,-25 -57,-15 c-8,14 -42,141 -249,940 c-77,294 -137,538 -135,542 c8,12 73,10 379,-12 zm4039,-1364 c30,-61 116,-257 191,-436 c177,-419 289,-668 318,-703 c19,-23 33,-29 97,-37 c41,-5 330,-10 643,-10 l567,0 l0,-170 l0,-170 l-502,0 c-277,0 -600,3 -719,7 l-216,6 l-193,431 c-331,736 -490,1104 -490,1133 c0,29 210,92 237,71 c7,-6 37,-60 67,-122 zm2834,-1360 c-2,-624 -7,-1138 -11,-1142 c-24,-25 -342,78 -435,140 c-82,54 -167,138 -193,189 c-32,62 -38,199 -39,862 l0,630 l49,77 c121,188 353,345 543,367 c40,5 77,9 82,10 c5,0 7,-497 4,-1133 z" id="svg_6" fill="#6d6d6d" fill-opacity="1"/>
<path d="M7335.769225120544,5688.615386009216 c-580,-145 -2572,-682 -3265,-880 c-444,-127 -459,-132 -481,-168 c-46,-75 -8,-200 72,-242 c23,-12 44,-9 180,22 c356,80 2518,652 3154,834 c470,134 535,166 535,260 c0,105 -102,197 -195,174 z" id="svg_7" fill="#6d6d6d" fill-opacity="1"/>
<path d="M7210.769225120544,4949.615386009216 c-186,-51 -333,-179 -392,-343 c-29,-82 -30,-223 0,-318 c53,-174 219,-313 410,-346 c179,-30 372,56 488,218 c63,88 86,164 86,284 c1,142 -39,247 -131,352 c-104,119 -321,191 -461,153 zm195,-365 c65,-40 81,-154 33,-228 c-30,-44 -96,-82 -145,-82 c-67,0 -153,90 -161,169 c-6,67 21,111 91,146 c61,31 126,29 182,-5 z" id="svg_8" fill="#6d6d6d" fill-opacity="1"/>
</g></g></svg>