<svg width="370" height="409" viewBox="0 0 370 409" fill="none" xmlns="http://www.w3.org/2000/svg">
<path d="M350.526 345.472C337.869 336.713 331.053 322.117 331.053 306.546C331.053 247.183 307.684 190.74 265.816 148.894L223.948 107.049V77.8538L258.026 35.0347C260.948 31.1417 262.895 26.276 262.895 21.4095C262.895 9.7313 253.159 0 241.474 0H204.474L194.738 19.4634L175.264 0H128.527C116.842 0 107.106 9.7313 107.106 21.4095C107.106 26.2752 109.053 31.1408 111.974 35.0339L146.053 77.8529V107.048L104.185 148.893C62.3167 190.739 38.9478 247.182 38.9478 306.545C38.9478 322.116 32.1324 336.713 19.4739 345.471C6.81539 354.229 0 368.827 0 384.397C0 398.022 10.7105 408.726 24.3421 408.726H345.657C359.289 408.726 369.999 398.022 369.999 384.397C370 368.829 363.185 354.231 350.526 345.472Z" fill="#A8A8A8"/>
<path d="M350.527 345.472C337.87 335.741 331.053 321.143 331.053 305.573C332.027 244.264 303.79 186.847 260.948 143.055L223.948 107.048V77.8529L258.027 35.0339C263.869 28.2221 264.842 18.49 259.974 9.7313C256.079 2.91956 248.29 0 240.5 0C233.685 0 229.79 7.78521 231.737 13.6243C232.711 15.5704 233.684 18.49 233.684 21.4095C233.684 26.2752 231.737 31.1408 228.816 35.0339L194.737 77.8529V107.048H146.053L136.316 116.779H204.474L240.501 152.786C280.422 192.686 296.001 247.183 292.106 302.653C291.132 319.197 297.949 334.767 310.606 344.499C311.58 345.472 312.553 346.445 313.527 346.445C328.133 362.015 315.475 388.29 293.08 388.29H0.975586C2.92272 398.995 12.6601 407.754 24.3437 407.754H306.712H331.054H345.66C359.291 407.755 370.001 397.05 370.001 383.426V381.479C370.001 366.882 362.212 354.231 350.527 345.472Z" fill="#636363"/>
<path d="M228.816 107.048H141.184C133.394 107.048 126.578 100.236 126.578 92.4498C126.578 84.6646 133.394 77.8521 141.184 77.8521H228.815C236.604 77.8521 243.421 84.6638 243.421 92.4498C243.421 100.236 236.605 107.048 228.816 107.048Z" fill="#A8A8A8"/>
<path d="M141.184 77.853H189.868C192.789 77.853 194.736 79.7991 194.736 82.7187C194.736 85.6382 192.789 87.5843 189.868 87.5843H141.184C138.263 87.5843 136.315 85.6382 136.315 82.7187C136.315 79.8 138.263 77.853 141.184 77.853Z" fill="#CCCCCC"/>
<path d="M228.817 77.853H223.948V87.5843C223.948 93.4234 220.053 97.3156 214.212 97.3156H127.554C129.501 103.155 135.343 107.047 141.185 107.047H228.817C236.606 107.047 243.422 100.235 243.422 92.4491C243.422 84.6631 236.606 77.853 228.817 77.853Z" fill="#777575"/>
<path d="M199.606 97.3164H228.816C231.737 97.3164 233.684 99.2625 233.684 102.182C233.684 105.102 231.737 107.048 228.816 107.048H199.606C196.684 107.048 194.737 105.102 194.737 102.182C194.736 99.2625 196.684 97.3164 199.606 97.3164Z" fill="#393838"/>
<path d="M194.738 107.048H175.264V184.901H194.738V107.048Z" fill="#CCCCCC"/>
<path d="M175.264 107.048V116.78H185V184.901H194.737V116.78V107.048H175.264Z" fill="#777575"/>
<path d="M185.001 330.875C228.021 330.875 262.896 296.019 262.896 253.022C262.896 210.025 228.021 175.169 185.001 175.169C141.981 175.169 107.106 210.025 107.106 253.022C107.106 296.019 141.981 330.875 185.001 330.875Z" fill="#777575"/>
<path d="M244.396 203.39C256.08 217.015 262.896 233.559 262.896 253.022C262.896 295.841 227.843 330.875 185.001 330.875C165.527 330.875 148.975 324.063 135.344 312.385C149.949 329.902 171.37 340.606 194.739 340.606C237.581 340.606 272.633 305.572 272.633 262.753C272.632 238.424 261.922 217.015 244.396 203.39Z" fill="#444444"/>
<path d="M185 321.144C222.643 321.144 253.158 290.645 253.158 253.022C253.158 215.4 222.643 184.901 185 184.901C147.357 184.901 116.842 215.4 116.842 253.022C116.842 290.645 147.357 321.144 185 321.144Z" fill="#CCCCCC"/>
<path d="M253.158 253.022C253.158 290.976 222.974 321.144 185 321.144V330.875C227.842 330.875 262.895 295.842 262.895 253.022H253.158Z" fill="#5A5A5A"/>
<path d="M185.001 184.901V175.169C142.159 175.169 107.106 210.203 107.106 253.022H116.843C116.844 215.069 147.027 184.901 185.001 184.901Z" fill="#F0F0F0"/>
<path d="M194.737 243.29H175.263C169.421 243.29 165.527 239.397 165.527 233.559C165.527 227.72 169.422 223.827 175.263 223.827H204.474C210.316 223.827 214.21 219.934 214.21 214.096C214.21 208.257 210.315 204.365 204.474 204.365H194.737C194.737 198.526 190.842 194.634 185.001 194.634C179.158 194.634 175.264 198.527 175.264 204.365C158.711 204.365 146.054 217.016 146.054 233.56C146.054 250.103 158.711 262.754 175.264 262.754H194.738C200.58 262.754 204.475 266.647 204.475 272.486C204.475 278.324 200.579 282.217 194.738 282.217H165.528C159.685 282.217 155.791 286.11 155.791 291.948C155.791 297.787 159.686 301.68 165.528 301.68H175.264C175.264 307.519 179.159 311.411 185.001 311.411C190.843 311.411 194.737 307.518 194.737 301.68C211.29 301.68 223.948 289.029 223.948 272.485C223.948 255.941 211.29 243.29 194.737 243.29Z" fill="#777575"/>
</svg>
