<svg width="413" height="396" viewBox="0 0 413 396" fill="none" xmlns="http://www.w3.org/2000/svg">
<path d="M211.701 1.76736C208.604 -0.589119 204.339 -0.589119 201.257 1.76736L3.39873 152.916C0.47204 155.152 -0.715648 158.971 0.437386 162.464L76.021 389.829C77.1898 393.342 80.4756 395.714 84.193 395.714H328.765C332.464 395.714 335.769 393.342 336.937 389.829L412.521 162.464C413.674 158.971 412.502 155.152 409.579 152.916L211.701 1.76736Z" fill="#CCCCCC"/>
<path d="M328.745 395.714H84.1914C80.4929 395.714 77.1881 393.342 76.0193 389.814L0.435745 162.445C-0.717288 158.971 0.4704 155.152 3.37819 152.916L201.24 1.76736C204.337 -0.589119 208.602 -0.589119 211.684 1.76736L409.542 152.916C412.45 155.152 413.638 158.99 412.485 162.464L336.901 389.829C335.748 393.342 332.462 395.714 328.745 395.714V395.714ZM90.385 378.51H322.535L394.228 162.861L206.47 19.4189L18.7079 162.861L90.385 378.51Z" fill="#444444"/>
</svg>
