<svg height="512pt" viewBox="0 -11 512.03817 512" width="512pt" xmlns="http://www.w3.org/2000/svg"><path d="m262.492188 2.210938c-3.839844-2.921876-9.128907-2.921876-12.949219 0l-245.332031 187.414062c-3.628907 2.773438-5.101563 7.507812-3.671876 11.839844l93.71875 281.917968c1.449219 4.355469 5.523438 7.296876 10.132813 7.296876h303.253906c4.585938 0 8.683594-2.941407 10.132813-7.296876l93.71875-281.917968c1.429687-4.332032-.023438-9.066406-3.648438-11.839844zm0 0" fill="#2196f3"/><path d="m407.621094 490.679688h-303.230469c-4.585937 0-8.683594-2.941407-10.132813-7.316407l-93.71875-281.921875c-1.429687-4.308594.042969-9.042968 3.648438-11.816406l245.335938-187.414062c3.839843-2.921876 9.128906-2.921876 12.949218 0l245.332032 187.414062c3.605468 2.773438 5.078124 7.53125 3.648437 11.839844l-93.71875 281.917968c-1.429687 4.355469-5.503906 7.296876-10.113281 7.296876zm-295.550782-21.332032h287.851563l88.894531-267.390625-232.808594-177.859375-232.8125 177.859375zm0 0"/></svg>